<svg version="1.1" xmlns="http://www.w3.org/2000/svg" viewBox="0 0 368.8000183105469 360.0000457763672" width="368.8000183105469" height="360.0000457763672">
  <!-- svg-source:excalidraw -->
  
  <defs>
    <style class="style-fonts">
      @font-face {
        font-family: "Virgil";
        src: url("https://excalidraw.com/Virgil.woff2");
      }
      @font-face {
        font-family: "Cascadia";
        src: url("https://excalidraw.com/Cascadia.woff2");
      }
    </style>
    
  </defs>
  <rect x="0" y="0" width="368.8000183105469" height="360.0000457763672" fill="#ffffff"></rect><g stroke-linecap="round" transform="translate(10 14.800079345703125) rotate(0 68.39999389648438 167.59998321533203)"><path d="M7.86 8.16 C7.86 8.16, 7.86 8.16, 7.86 8.16 M7.86 8.16 C7.86 8.16, 7.86 8.16, 7.86 8.16 M2.35 20.59 C2.04 16.04, 8.18 14.09, 18.1 2.48 M2.35 20.59 C8.69 16.6, 14.35 10.02, 18.1 2.48 M2.75 26.24 C12.16 15.94, 19.47 7.17, 24.4 1.33 M2.75 26.24 C10.07 17.68, 15.22 12.14, 24.4 1.33 M2.48 32.64 C11.02 25.08, 18.7 17.44, 30.7 0.18 M2.48 32.64 C11.54 20.04, 24.24 10.69, 30.7 0.18 M2.88 38.28 C13.72 31.93, 18.16 19, 34.37 2.05 M2.88 38.28 C13.39 24.04, 27.87 9.85, 34.37 2.05 M2.62 44.68 C15.85 33, 19.1 22.83, 39.36 2.41 M2.62 44.68 C12.94 32.09, 21.6 24.1, 39.36 2.41 M2.36 51.07 C19.92 35.47, 32.07 15.04, 45 2.02 M2.36 51.07 C15.08 40.16, 24.19 25.21, 45 2.02 M2.75 56.72 C17.32 36.25, 35.31 24.03, 49.99 2.38 M2.75 56.72 C19.91 37.06, 36.75 17.39, 49.99 2.38 M2.49 63.11 C18.43 47.26, 31.02 36.24, 55.63 1.98 M2.49 63.11 C20.56 38.82, 41.84 16.79, 55.63 1.98 M2.88 68.76 C23.01 43.89, 35.38 30.28, 60.62 2.34 M2.88 68.76 C23.9 46, 43.62 21.11, 60.62 2.34 M2.62 75.16 C16.6 55.28, 34.54 39.91, 66.26 1.95 M2.62 75.16 C21.03 50.56, 40.63 29.53, 66.26 1.95 M2.36 81.55 C20.97 60.36, 35.02 50.26, 71.25 2.31 M2.36 81.55 C18.67 65.33, 32.76 50.14, 71.25 2.31 M2.76 87.2 C24.83 63.26, 48.01 33.46, 76.23 2.67 M2.76 87.2 C30.32 57.61, 55.09 26.6, 76.23 2.67 M2.49 93.59 C25.4 64.95, 47.23 37.17, 81.88 2.27 M2.49 93.59 C19.74 75.61, 38.51 51.59, 81.88 2.27 M2.23 99.99 C38.34 58.31, 71.53 23.58, 86.86 2.63 M2.23 99.99 C24.7 76.36, 42.6 54.47, 86.86 2.63 M2.63 105.64 C21.14 82.08, 41.36 58.28, 92.51 2.24 M2.63 105.64 C32.95 70.53, 64.58 37.49, 92.51 2.24 M2.37 112.03 C29.43 80.36, 50.38 47.77, 97.49 2.6 M2.37 112.03 C41.24 68.41, 79.63 22.54, 97.49 2.6 M2.76 117.68 C36.63 84.91, 64.9 47.16, 103.14 2.21 M2.76 117.68 C26.15 86.54, 54.43 56.88, 103.14 2.21 M2.5 124.07 C43.19 77.87, 82.66 35.27, 108.12 2.57 M2.5 124.07 C25.26 96.38, 48.78 68.41, 108.12 2.57 M2.24 130.47 C24.39 101.24, 47.49 74.38, 113.77 2.17 M2.24 130.47 C40.94 86.34, 82.28 43.06, 113.77 2.17 M2.63 136.11 C49.41 82.26, 95.52 31.24, 117.44 4.04 M2.63 136.11 C30.16 103.87, 56.58 75.35, 117.44 4.04 M2.37 142.51 C39.32 91.05, 86.72 42.93, 121.77 5.16 M2.37 142.51 C38.36 100.4, 77.49 59.22, 121.77 5.16 M2.11 148.91 C47.4 97.08, 93.96 49.87, 125.45 7.02 M2.11 148.91 C43.37 100.31, 86.66 53.53, 125.45 7.02 M2.5 154.55 C29.18 117.51, 63.8 89.96, 129.12 8.89 M2.5 154.55 C41.1 117.01, 73.51 76.5, 129.12 8.89 M2.24 160.95 C43.82 114.85, 78.87 63.59, 131.49 12.27 M2.24 160.95 C26.74 131.47, 54.91 102.07, 131.49 12.27 M2.64 166.59 C41.42 120.42, 76.07 81.36, 133.85 15.65 M2.64 166.59 C54.09 107.67, 107.54 48.04, 133.85 15.65 M2.38 172.99 C56.24 115.74, 106.98 51.25, 136.21 19.03 M2.38 172.99 C29.96 140.36, 58.24 108.95, 136.21 19.03 M2.11 179.39 C40.04 137.72, 82.11 88.47, 136.61 24.67 M2.11 179.39 C31.23 148.77, 56.32 117.05, 136.61 24.67 M2.51 185.03 C33.8 154.06, 66.74 116.62, 137.66 29.56 M2.51 185.03 C44.66 140.49, 83.31 98.36, 137.66 29.56 M2.25 191.43 C39 143.67, 85.53 93.04, 139.36 33.7 M2.25 191.43 C34.33 154.95, 64.21 120.3, 139.36 33.7 M2.64 197.07 C41.66 150.57, 75.21 112.59, 139.1 40.09 M2.64 197.07 C54.38 141.21, 104.82 82.66, 139.1 40.09 M2.38 203.47 C53.5 145.32, 100.28 88.16, 138.84 46.49 M2.38 203.47 C28.77 167.95, 58.65 135.3, 138.84 46.49 M2.12 209.87 C42.45 162.8, 88.08 114.73, 139.24 52.14 M2.12 209.87 C39.27 166.23, 76.84 122.58, 139.24 52.14 M2.51 215.51 C52.3 155.52, 105.03 99.35, 138.97 58.53 M2.51 215.51 C41.73 173.87, 81.77 127.39, 138.97 58.53 M2.25 221.91 C44.36 164.14, 92.35 110.02, 139.37 64.18 M2.25 221.91 C34.31 182.29, 67.88 143.3, 139.37 64.18 M1.99 228.31 C30.85 197.73, 55.94 162.98, 139.11 70.57 M1.99 228.31 C32.78 193.99, 64.12 158.95, 139.11 70.57 M2.39 233.95 C45.92 181.76, 88.53 131.71, 138.85 76.97 M2.39 233.95 C32.96 200.39, 61.65 167.26, 138.85 76.97 M2.12 240.35 C38.28 203.58, 68.09 165.45, 139.24 82.61 M2.12 240.35 C45.69 188.12, 92.87 136.61, 139.24 82.61 M2.52 245.99 C56.93 189.93, 103.52 133.32, 138.98 89.01 M2.52 245.99 C43.1 196.05, 81.33 152.09, 138.98 89.01 M2.26 252.39 C59.73 191.8, 111.73 134.31, 139.37 94.66 M2.26 252.39 C50.92 193.97, 104.58 136.85, 139.37 94.66 M2 258.79 C55.57 199.75, 106.84 143.82, 139.11 101.05 M2 258.79 C47.8 205.63, 92.33 151.91, 139.11 101.05 M2.39 264.43 C33.28 226.2, 70.24 188.8, 138.85 107.45 M2.39 264.43 C42.11 214.66, 83.91 170.15, 138.85 107.45 M2.13 270.83 C37.68 231.24, 72.27 185.71, 139.25 113.09 M2.13 270.83 C48.12 216.08, 95.31 160.74, 139.25 113.09 M1.87 277.23 C49.98 216.87, 98.04 156.21, 138.98 119.49 M1.87 277.23 C35.51 238.18, 70.63 201.03, 138.98 119.49 M2.26 282.87 C32.7 247.34, 57.65 216.78, 139.38 125.13 M2.26 282.87 C47.19 233.72, 88.13 188.14, 139.38 125.13 M2 289.27 C34.78 253.55, 68.9 209.75, 139.12 131.53 M2 289.27 C51.3 229.89, 101.63 172.39, 139.12 131.53 M2.4 294.91 C40.93 247.85, 86.49 205.18, 138.86 137.93 M2.4 294.91 C45.24 247.71, 90.29 197.83, 138.86 137.93 M0.17 303.57 C39.03 258.66, 73.27 216.4, 139.25 143.57 M0.17 303.57 C28.79 266.85, 56.21 233.66, 139.25 143.57 M1.22 308.46 C44.28 268.78, 82.7 220.76, 138.99 149.97 M1.22 308.46 C35.85 270.87, 68.55 236.41, 138.99 149.97 M1.61 314.1 C50.83 257.99, 97.67 198.42, 139.38 155.61 M1.61 314.1 C46.79 257.64, 93.45 206.18, 139.38 155.61 M3.32 318.24 C50.16 258.85, 106.27 205.07, 139.12 162.01 M3.32 318.24 C41.06 273.99, 82.45 229.13, 139.12 162.01 M5.68 321.62 C56.32 265.89, 101.01 213.86, 138.86 168.41 M5.68 321.62 C49.06 270.69, 91.06 222.84, 138.86 168.41 M8.04 324.99 C44.51 282.62, 74.1 247.34, 139.25 174.05 M8.04 324.99 C38.23 290.18, 70.59 253.27, 139.25 174.05 M11.06 327.62 C37.2 297.22, 63 265.68, 138.99 180.45 M11.06 327.62 C44.1 288.99, 77.12 251.43, 138.99 180.45 M13.42 331 C51.37 287.75, 87.87 245.72, 139.39 186.09 M13.42 331 C39.15 298.18, 69.44 267.65, 139.39 186.09 M17.1 332.87 C47.75 298.24, 81.65 265.14, 139.13 192.49 M17.1 332.87 C61.99 281.95, 105.33 230.74, 139.13 192.49 M21.43 333.98 C63.84 287.97, 100.25 242.28, 138.87 198.89 M21.43 333.98 C56.79 295.75, 89.9 259.89, 138.87 198.89 M25.11 335.85 C48.68 301.9, 81.66 276.85, 139.26 204.53 M25.11 335.85 C67.18 284.75, 108.1 237.4, 139.26 204.53 M30.75 335.46 C61.36 298.44, 93.47 258.64, 139 210.93 M30.75 335.46 C61.38 302.94, 90.94 272.32, 139 210.93 M35.74 335.82 C68.08 293.06, 106.93 250.72, 139.39 216.57 M35.74 335.82 C62.22 304.31, 91.95 274.55, 139.39 216.57 M41.38 335.42 C76.13 297.8, 112.25 256.92, 139.13 222.97 M41.38 335.42 C69.8 300.52, 101.63 263.25, 139.13 222.97 M46.37 335.78 C64.64 313.46, 82.99 290.79, 138.87 229.37 M46.37 335.78 C79.02 298.03, 112.82 258.36, 138.87 229.37 M52.01 335.39 C86.58 297.36, 120.68 256.91, 139.26 235.01 M52.01 335.39 C67.35 316.56, 88.19 295.68, 139.26 235.01 M57 335.75 C82.17 309.98, 97.5 285.31, 139 241.41 M57 335.75 C76.28 310.36, 98.25 286.77, 139 241.41 M62.64 335.35 C82.2 308.86, 107.88 278.43, 139.4 247.05 M62.64 335.35 C91.54 303.21, 117.98 270.08, 139.4 247.05 M67.63 335.71 C92.51 311.6, 116.61 278.55, 139.14 253.45 M67.63 335.71 C90.42 308.96, 113.04 282.77, 139.14 253.45 M72.61 336.07 C93.83 314.41, 110.94 286.61, 138.87 259.85 M72.61 336.07 C88.48 316.42, 106.86 299.69, 138.87 259.85 M78.26 335.68 C96.19 313.57, 120.74 286.92, 139.27 265.49 M78.26 335.68 C96.16 313.93, 117.74 291.48, 139.27 265.49 M83.24 336.04 C101.34 317.79, 114.93 296.73, 139.01 271.89 M83.24 336.04 C95.58 321.51, 108.14 305.89, 139.01 271.89 M88.89 335.65 C102.98 316.54, 125.4 295.4, 139.4 277.53 M88.89 335.65 C99.46 322.78, 109.48 311.6, 139.4 277.53 M93.87 336.01 C103.72 325.41, 111.12 314.86, 139.14 283.93 M93.87 336.01 C104.33 324.03, 117.31 311.2, 139.14 283.93 M99.52 335.61 C110.06 318.76, 124.87 305.4, 138.88 290.33 M99.52 335.61 C112.98 319.22, 129.35 303.82, 138.88 290.33 M105.16 335.22 C114.87 326.1, 125.76 315.29, 139.27 295.97 M105.16 335.22 C115.2 321.31, 128.93 307.05, 139.27 295.97 M110.8 334.82 C122.26 319.97, 131.1 316.02, 137.7 303.88 M110.8 334.82 C121.85 325.7, 130.28 314.37, 137.7 303.88 M117.1 333.67 C122.89 331.8, 124.24 326.29, 135.47 312.54 M117.1 333.67 C120.15 328.48, 125.4 324.18, 135.47 312.54 M120.78 335.54 C124.55 334.59, 127.63 327.75, 133.9 320.45 M120.78 335.54 C125.7 330.37, 128.25 325.9, 133.9 320.45" stroke="#a5d8ff" stroke-width="0.5" fill="none"></path><path d="M32 0 M32 0 C62.87 1.13, 91.72 -0.89, 104.8 0 M32 0 C51.98 -0.26, 69.98 -1.2, 104.8 0 M104.8 0 C126.02 -0.23, 140.22 8.27, 136.8 32 M104.8 0 C121.85 -2.73, 139.44 11.94, 136.8 32 M136.8 32 C136.62 124, 132.82 207.77, 136.8 303.2 M136.8 32 C138.07 128.57, 138.64 227.92, 136.8 303.2 M136.8 303.2 C136.98 324.14, 125.41 333.07, 104.8 335.2 M136.8 303.2 C134.57 327.11, 129.74 337.55, 104.8 335.2 M104.8 335.2 C83.74 336.76, 59.22 336.69, 32 335.2 M104.8 335.2 C79.48 334.7, 56.4 337.77, 32 335.2 M32 335.2 C10.82 336.7, 1.96 323.41, 0 303.2 M32 335.2 C12.85 338.82, 2.85 320.56, 0 303.2 M0 303.2 C1.58 240.87, 1.82 184, 0 32 M0 303.2 C-1.67 242.29, 0.64 178, 0 32 M0 32 C-3.05 8.8, 14.14 -1.22, 32 0 M0 32 C-1.09 7.88, 9.74 2.91, 32 0" stroke="#1e1e1e" stroke-width="1" fill="none"></path></g><g stroke-linecap="round" transform="translate(32.399993896484375 43.59999084472656) rotate(0 46.399993896484375 17.5)"><path d="M2.33 2.02 C2.33 2.02, 2.33 2.02, 2.33 2.02 M2.33 2.02 C2.33 2.02, 2.33 2.02, 2.33 2.02 M0.76 9.93 C1.38 6.2, 8.77 4.86, 9.28 0.12 M0.76 9.93 C4 6.22, 7.74 2.45, 9.28 0.12 M1.15 15.57 C4.25 13.54, 7.35 2.68, 14.27 0.48 M1.15 15.57 C3.74 8.97, 7.87 5.36, 14.27 0.48 M1.54 21.22 C2.95 11.87, 10.27 12.69, 19.91 0.09 M1.54 21.22 C5.01 14.86, 9.43 12, 19.91 0.09 M1.28 27.62 C10.64 23.85, 12.32 14.02, 24.9 0.45 M1.28 27.62 C11.25 19.09, 17.99 8.22, 24.9 0.45 M2.99 31.75 C10.31 21.41, 16.74 11.37, 29.89 0.81 M2.99 31.75 C11.83 23.68, 18.12 11.78, 29.89 0.81 M5.35 35.13 C14.71 24.82, 20.86 20.01, 35.53 0.41 M5.35 35.13 C14.55 21.13, 27.17 7.6, 35.53 0.41 M11 34.73 C19.75 25.28, 27.99 15.62, 40.52 0.77 M11 34.73 C16.57 24.45, 25.03 15.62, 40.52 0.77 M15.98 35.09 C25.5 27.8, 33.94 15.15, 46.16 0.38 M15.98 35.09 C21.25 27.83, 26.84 21.84, 46.16 0.38 M21.63 34.7 C26.67 28.15, 39.33 21.14, 51.15 0.74 M21.63 34.7 C33.27 21.99, 41.9 10, 51.15 0.74 M26.61 35.06 C35.72 28.57, 46.48 16.67, 56.79 0.34 M26.61 35.06 C35.53 27.52, 39.57 19.05, 56.79 0.34 M31.6 35.42 C42.07 23.44, 51.29 14.81, 61.78 0.7 M31.6 35.42 C43.35 24.23, 51.01 10.91, 61.78 0.7 M37.24 35.02 C44.55 23.23, 51.47 18.26, 66.77 1.06 M37.24 35.02 C47.78 23.3, 53.69 13.21, 66.77 1.06 M42.23 35.38 C56.58 18.16, 60.96 12.95, 72.41 0.67 M42.23 35.38 C49.88 27.59, 60.2 18.47, 72.41 0.67 M47.87 34.99 C59.54 26.19, 65.51 8.53, 77.4 1.03 M47.87 34.99 C57.16 25.42, 67.89 11.74, 77.4 1.03 M52.86 35.35 C55.78 26.15, 67.96 16.12, 83.04 0.63 M52.86 35.35 C62.74 24.63, 69.45 14.32, 83.04 0.63 M58.5 34.96 C69.87 26.19, 76.14 18.37, 88.03 0.99 M58.5 34.96 C66.63 26.16, 76.24 16.16, 88.03 0.99 M63.49 35.32 C73.6 28.26, 73.75 19.38, 91.04 3.62 M63.49 35.32 C70.87 26.51, 76.48 22.21, 91.04 3.62 M68.48 35.68 C78.8 30, 78.71 21.21, 94.06 6.24 M68.48 35.68 C80.28 26.37, 87.51 14.28, 94.06 6.24 M74.12 35.28 C82.05 27.92, 85.53 23.57, 93.8 12.64 M74.12 35.28 C78.15 28.32, 83.99 21.82, 93.8 12.64 M79.11 35.64 C80.44 30.45, 86.04 22.49, 94.2 18.28 M79.11 35.64 C83.94 32.44, 88.39 25.17, 94.2 18.28 M84.75 35.25 C90.02 31.07, 93.16 28.14, 93.94 24.68 M84.75 35.25 C86.06 33.1, 90.1 31.34, 93.94 24.68" stroke="#a5d8ff" stroke-width="0.5" fill="none"></path><path d="M8.75 0 M8.75 0 C34.88 1.77, 60.64 3.19, 84.05 0 M8.75 0 C31.67 0.2, 53.55 1.28, 84.05 0 M84.05 0 C88.03 2.59, 91.42 0.64, 92.8 8.75 M84.05 0 C86.54 -0.96, 91.8 3.89, 92.8 8.75 M92.8 8.75 C90.22 12.62, 89.5 18.32, 92.8 26.25 M92.8 8.75 C92.2 13.4, 93.56 21.24, 92.8 26.25 M92.8 26.25 C89.8 32.44, 90.76 38.51, 84.05 35 M92.8 26.25 C93.59 31.44, 88.17 35.46, 84.05 35 M84.05 35 C60.05 37.77, 36.66 32.9, 8.75 35 M84.05 35 C63.39 36.11, 44.74 37.61, 8.75 35 M8.75 35 C5.81 38.45, -3.15 29.24, 0 26.25 M8.75 35 C-1.68 39.3, -4.51 35.06, 0 26.25 M0 26.25 C-1.82 18.01, -0.34 13.36, 0 8.75 M0 26.25 C1.79 20.54, -0.71 17.43, 0 8.75 M0 8.75 C2.51 3.08, 2.73 0.69, 8.75 0 M0 8.75 C3.81 -0.08, 6.92 1.97, 8.75 0" stroke="#1e1e1e" stroke-width="1" fill="none"></path></g><g transform="translate(47.490013122558594 48.59999084472656) rotate(0 31.309974670410156 12.5)"><text x="31.309974670410156" y="0" font-family="Virgil, Segoe UI Emoji" font-size="20px" fill="#1e1e1e" text-anchor="middle" style="white-space: pre;" direction="ltr" dominant-baseline="text-before-edge">main.js</text></g><g stroke-linecap="round"><g transform="translate(82.11682869814274 85.19999694824219) rotate(0 1.462221436976506 73.32335559219122)"><path d="M-0.77 0.17 C-0.44 24.63, 0.97 121.14, 1.27 145.07 M4.01 -2.21 C4.01 22.92, -0.24 124.1, -1.08 148.85" stroke="#1e1e1e" stroke-width="1" fill="none"></path></g><g transform="translate(82.11682869814274 85.19999694824219) rotate(0 1.462221436976506 73.32335559219122)"><path d="M-10.02 119.99 C-7.7 127.53, -7.06 138.93, -0.59 145.47 M-11.24 119.45 C-6.74 127.96, -5.25 135.13, -2.08 147.06" stroke="#1e1e1e" stroke-width="1" fill="none"></path></g><g transform="translate(82.11682869814274 85.19999694824219) rotate(0 1.462221436976506 73.32335559219122)"><path d="M10.48 120.77 C7.19 127.98, 2.21 139.16, -0.59 145.47 M9.26 120.23 C8.93 128.31, 5.58 135.3, -2.08 147.06" stroke="#1e1e1e" stroke-width="1" fill="none"></path></g></g><mask></mask><g stroke-linecap="round" transform="translate(38.800018310546875 256.3999938964844) rotate(0 42.399993896484375 30)"><path d="M3.99 3.47 C3.99 3.47, 3.99 3.47, 3.99 3.47 M3.99 3.47 C3.99 3.47, 3.99 3.47, 3.99 3.47 M1.11 12.89 C2.88 7.5, 9.69 5.23, 10.95 1.57 M1.11 12.89 C2.56 8.55, 5.17 8.4, 10.95 1.57 M1.5 18.53 C2.23 8.85, 14.91 5.68, 16.59 1.17 M1.5 18.53 C6.23 16.51, 9.57 11.82, 16.59 1.17 M1.24 24.93 C12.06 12.96, 14.08 9.18, 21.58 1.53 M1.24 24.93 C10.98 16.68, 16.61 5.23, 21.58 1.53 M1.63 30.57 C10.2 21.46, 17.92 8.48, 27.22 1.14 M1.63 30.57 C6.53 22.57, 11.82 17.29, 27.22 1.14 M1.37 36.97 C10.52 27.84, 20.51 17.39, 32.21 1.5 M1.37 36.97 C11.94 26.79, 21.21 15.18, 32.21 1.5 M1.11 43.37 C15.02 24.59, 27.01 9.87, 37.85 1.1 M1.11 43.37 C9.97 31.15, 23.59 16.28, 37.85 1.1 M1.51 49.01 C11.68 36.02, 18.46 31.46, 42.84 1.46 M1.51 49.01 C13.47 36.22, 22.34 24.36, 42.84 1.46 M3.21 53.14 C14.62 40.09, 28.41 20.08, 48.48 1.07 M3.21 53.14 C12.36 40.87, 22.31 31.01, 48.48 1.07 M4.92 57.28 C23.73 33.44, 40.56 13.86, 53.47 1.43 M4.92 57.28 C26.06 35.64, 43.06 13.15, 53.47 1.43 M9.25 58.39 C27.96 39.17, 47.84 10.9, 59.11 1.03 M9.25 58.39 C20.98 47.67, 33.05 34.17, 59.11 1.03 M12.93 60.26 C32.96 41.14, 52.61 17.74, 64.1 1.39 M12.93 60.26 C24.11 47.86, 36.09 33.86, 64.1 1.39 M17.26 61.38 C34.16 38.84, 55.58 18.22, 70.4 0.24 M17.26 61.38 C32.23 42.5, 46.88 25.6, 70.4 0.24 M22.24 61.74 C35.75 42.19, 54.81 29.43, 74.07 2.11 M22.24 61.74 C35.56 48.43, 45.19 33.92, 74.07 2.11 M27.89 61.34 C40.06 43.34, 62.96 26.11, 78.4 3.23 M27.89 61.34 C43.21 43.3, 56.9 28.18, 78.4 3.23 M32.87 61.7 C48.54 35.42, 67.34 19.41, 82.08 5.1 M32.87 61.7 C40.94 51.64, 50.86 37.14, 82.08 5.1 M37.86 62.06 C49.48 43.73, 68.24 30.91, 83.78 9.23 M37.86 62.06 C48.39 48.23, 60.09 36.82, 83.78 9.23 M43.5 61.67 C50.52 50.3, 64.22 41.71, 85.49 13.37 M43.5 61.67 C55.25 51.82, 62.87 38.19, 85.49 13.37 M48.49 62.03 C59.07 53.18, 65.67 40.94, 87.2 17.5 M48.49 62.03 C60.01 48.83, 71.67 35.08, 87.2 17.5 M54.13 61.63 C65.31 51.33, 79.16 31.37, 87.59 23.14 M54.13 61.63 C63.32 53.92, 68.22 44.11, 87.59 23.14 M59.12 61.99 C67.27 45.89, 83.89 39.98, 87.33 29.54 M59.12 61.99 C68.28 50.02, 81.02 37.38, 87.33 29.54 M64.76 61.6 C66.23 56.24, 73.28 54.22, 87.07 35.94 M64.76 61.6 C68.47 55.15, 76.1 49.82, 87.07 35.94 M71.06 60.45 C73.57 50.77, 83.02 50.37, 87.46 41.58 M71.06 60.45 C78.51 51.93, 81.82 47.16, 87.46 41.58 M78.02 58.55 C82.76 57.27, 82.07 51.02, 85.89 49.49 M78.02 58.55 C79.53 56.22, 82.56 52.66, 85.89 49.49" stroke="#a5d8ff" stroke-width="0.5" fill="none"></path><path d="M15 0 M15 0 C25.44 0.92, 43.1 2.39, 69.8 0 M15 0 C29.23 0.41, 41.01 1.75, 69.8 0 M69.8 0 C80.41 -0.23, 82.94 3.75, 84.8 15 M69.8 0 C76.27 -0.72, 83.08 4.81, 84.8 15 M84.8 15 C86.6 26.98, 83.94 30.61, 84.8 45 M84.8 15 C85.44 19.16, 85.83 28.94, 84.8 45 M84.8 45 C84.57 57.98, 82.9 62.1, 69.8 60 M84.8 45 C85.04 55.39, 81.86 58.75, 69.8 60 M69.8 60 C55.43 63.76, 34.18 61.02, 15 60 M69.8 60 C47.31 58.75, 27.54 59.27, 15 60 M15 60 C3.22 60.86, -1.58 58.31, 0 45 M15 60 C7.45 56.77, -2.18 54.84, 0 45 M0 45 C3.68 35.88, -3.41 33.34, 0 15 M0 45 C2.29 38.06, 0.47 30.47, 0 15 M0 15 C-2.72 3.28, 7.98 -3.65, 15 0 M0 15 C-3.69 6.58, 3.11 0, 15 0" stroke="#1e1e1e" stroke-width="1" fill="none"></path></g><g transform="translate(63.08002471923828 261.3999938964844) rotate(0 18.11998748779297 25)"><text x="18.11998748779297" y="0" font-family="Virgil, Segoe UI Emoji" font-size="20px" fill="#1e1e1e" text-anchor="middle" style="white-space: pre;" direction="ltr" dominant-baseline="text-before-edge">a.js</text><text x="18.11998748779297" y="25" font-family="Virgil, Segoe UI Emoji" font-size="20px" fill="#1e1e1e" text-anchor="middle" style="white-space: pre;" direction="ltr" dominant-baseline="text-before-edge"></text></g><g stroke-linecap="round" transform="translate(218.80001831054688 10) rotate(0 70 168.80003356933597)"><path d="M7.86 8.16 C7.86 8.16, 7.86 8.16, 7.86 8.16 M7.86 8.16 C7.86 8.16, 7.86 8.16, 7.86 8.16 M2.35 20.59 C7.04 14.72, 8.81 7.88, 18.1 2.48 M2.35 20.59 C6.77 15.25, 12.54 9.76, 18.1 2.48 M2.75 26.24 C6.86 18.23, 20.56 12.97, 24.4 1.33 M2.75 26.24 C6.17 18.41, 11.26 16.32, 24.4 1.33 M2.48 32.64 C15.27 19.74, 18 15.15, 30.7 0.18 M2.48 32.64 C11.77 19.86, 22.6 9.35, 30.7 0.18 M2.88 38.28 C8.2 27.77, 18.26 19.31, 34.37 2.05 M2.88 38.28 C12.58 30.49, 22.42 17.1, 34.37 2.05 M2.62 44.68 C14.53 35.21, 26.45 19.39, 39.36 2.41 M2.62 44.68 C17.09 30.13, 29.39 13.8, 39.36 2.41 M2.36 51.07 C10.32 34.73, 23.74 21.69, 45 2.02 M2.36 51.07 C15.9 35.98, 29.11 19.85, 45 2.02 M2.75 56.72 C18.36 33.53, 36.08 19.66, 49.99 2.38 M2.75 56.72 C17.09 39.33, 32.87 19.01, 49.99 2.38 M2.49 63.11 C15.67 48.78, 22.99 39.06, 55.63 1.98 M2.49 63.11 C15.22 49.74, 29.04 34.2, 55.63 1.98 M2.88 68.76 C22.07 48.46, 33.23 35.41, 60.62 2.34 M2.88 68.76 C24.29 43.37, 47.84 17.73, 60.62 2.34 M2.62 75.16 C17.44 56.98, 28.87 45.46, 66.26 1.95 M2.62 75.16 C25.14 51.82, 48.27 26.55, 66.26 1.95 M2.36 81.55 C22.46 61.48, 36.55 48.48, 71.25 2.31 M2.36 81.55 C16.37 62.75, 33.63 43.75, 71.25 2.31 M2.76 87.2 C21.4 62.7, 44.6 46.14, 76.23 2.67 M2.76 87.2 C26.83 59.95, 49.25 36.41, 76.23 2.67 M2.49 93.59 C25.27 67.45, 40.81 47.91, 81.88 2.27 M2.49 93.59 C30.41 58.73, 59.29 25.9, 81.88 2.27 M2.23 99.99 C28.03 73.04, 48.67 45.7, 86.86 2.63 M2.23 99.99 C23.04 79.06, 42.14 52.64, 86.86 2.63 M2.63 105.64 C22.7 75.53, 50.96 46.3, 92.51 2.24 M2.63 105.64 C35.85 70.15, 67.51 30.31, 92.51 2.24 M2.37 112.03 C28 90.32, 41.8 62.09, 97.49 2.6 M2.37 112.03 C23.44 83.85, 48.24 61.7, 97.49 2.6 M2.76 117.68 C28.93 90.51, 51.01 62.91, 103.14 2.21 M2.76 117.68 C26.26 93.25, 48.66 65.52, 103.14 2.21 M2.5 124.07 C30.9 99.69, 51.42 75.12, 108.12 2.57 M2.5 124.07 C46 77.72, 87.41 31.15, 108.12 2.57 M2.24 130.47 C41.55 83.03, 88.37 29.77, 113.77 2.17 M2.24 130.47 C23.51 105.55, 43.36 82.49, 113.77 2.17 M2.63 136.11 C29.11 104.98, 48.95 78.49, 118.1 3.29 M2.63 136.11 C49.9 81.9, 94.38 27.82, 118.1 3.29 M2.37 142.51 C35.26 105.6, 69.44 67.53, 122.43 4.4 M2.37 142.51 C24.9 111.53, 47.53 84.84, 122.43 4.4 M2.11 148.91 C36.44 116.76, 67.1 78.04, 127.42 4.76 M2.11 148.91 C48.08 95.24, 94.69 40.51, 127.42 4.76 M2.5 154.55 C38.9 112.58, 71.04 75.04, 129.78 8.14 M2.5 154.55 C27.08 124.42, 55.01 92.92, 129.78 8.14 M2.24 160.95 C47.54 107.68, 85.5 62.06, 132.8 10.76 M2.24 160.95 C31.31 125.61, 54.99 96.15, 132.8 10.76 M2.64 166.59 C41.35 129.8, 71.41 91.38, 135.16 14.14 M2.64 166.59 C32.92 128.01, 65.92 93.35, 135.16 14.14 M2.38 172.99 C43.13 124.34, 81.05 81.8, 137.52 17.52 M2.38 172.99 C33.75 137.18, 64.55 101.5, 137.52 17.52 M2.11 179.39 C52.6 122.81, 100.4 65.38, 140.54 20.15 M2.11 179.39 C48.71 121.88, 96.44 67.06, 140.54 20.15 M2.51 185.03 C55.83 124.18, 114.35 62.36, 140.94 25.79 M2.51 185.03 C40.67 137.48, 82.71 91.93, 140.94 25.79 M2.25 191.43 C29.11 156.21, 59.37 124.86, 140.68 32.19 M2.25 191.43 C36.28 152.93, 72.05 111.27, 140.68 32.19 M2.64 197.07 C55.96 141.49, 103.66 80.72, 140.41 38.58 M2.64 197.07 C52.89 140.6, 101.67 85.01, 140.41 38.58 M2.38 203.47 C43.6 155.7, 87.53 110.71, 140.15 44.98 M2.38 203.47 C50.88 148.28, 98.3 94.55, 140.15 44.98 M2.12 209.87 C34.01 170.07, 67.82 129.06, 140.55 50.63 M2.12 209.87 C46.74 164.55, 88.56 113.9, 140.55 50.63 M2.51 215.51 C51.83 161.09, 103.92 97.35, 140.29 57.02 M2.51 215.51 C32.87 185.47, 62.7 152.32, 140.29 57.02 M2.25 221.91 C39.08 183.47, 68.81 142.13, 140.68 62.67 M2.25 221.91 C39.34 180.88, 77.83 137.36, 140.68 62.67 M1.99 228.31 C44.1 183.58, 77.26 141.21, 140.42 69.06 M1.99 228.31 C54.71 172.4, 102.69 113.8, 140.42 69.06 M2.39 233.95 C41.72 192.72, 79.13 145.06, 140.16 75.46 M2.39 233.95 C47.66 184.18, 95.14 132.65, 140.16 75.46 M2.12 240.35 C48.81 187.01, 91.69 137.03, 140.55 81.11 M2.12 240.35 C46.26 191.15, 89.96 144.02, 140.55 81.11 M2.52 245.99 C54.08 184.92, 100.12 127.03, 140.29 87.5 M2.52 245.99 C33.58 209.08, 67.75 171.07, 140.29 87.5 M2.26 252.39 C45.51 209.07, 87.34 158.4, 140.69 93.15 M2.26 252.39 C30.37 216.32, 62.82 180.47, 140.69 93.15 M2 258.79 C35.49 217.31, 75.53 173.02, 140.42 99.54 M2 258.79 C39.75 216.93, 76.66 173.35, 140.42 99.54 M2.39 264.43 C31.61 228.1, 65.09 193.24, 140.16 105.94 M2.39 264.43 C49.98 208.05, 94.5 156.06, 140.16 105.94 M2.13 270.83 C41.21 230.31, 72.53 183.66, 140.56 111.58 M2.13 270.83 C52.39 211.77, 102.61 150.46, 140.56 111.58 M1.87 277.23 C37 237.92, 74.17 191.13, 140.3 117.98 M1.87 277.23 C51.4 222.54, 101.48 166.59, 140.3 117.98 M2.26 282.87 C56.42 228.44, 105.53 169.47, 140.69 123.63 M2.26 282.87 C37.3 247.17, 72.8 208.25, 140.69 123.63 M2 289.27 C34.23 255.18, 65.87 215.4, 140.43 130.02 M2 289.27 C48.41 232.59, 101.63 171.84, 140.43 130.02 M2.4 294.91 C41.94 253.5, 81.65 209.54, 140.17 136.42 M2.4 294.91 C36.59 258.37, 67.35 222.82, 140.17 136.42 M2.13 301.31 C57.05 242.78, 109.81 179.3, 140.56 142.06 M2.13 301.31 C55.08 239.96, 108.33 177.79, 140.56 142.06 M1.87 307.71 C41.45 266.2, 76.53 227.41, 140.3 148.46 M1.87 307.71 C34.52 270.85, 62.13 233.95, 140.3 148.46 M2.92 312.59 C33.47 276.74, 67.36 234.95, 140.7 154.1 M2.92 312.59 C32.15 278.57, 65.26 243.14, 140.7 154.1 M2.01 319.75 C46.64 270.9, 86.66 222.29, 140.43 160.5 M2.01 319.75 C54.47 258.68, 106.87 200.63, 140.43 160.5 M4.37 323.13 C42.59 276.45, 76.93 232.68, 140.17 166.9 M4.37 323.13 C61.3 264.9, 113.39 200.6, 140.17 166.9 M7.39 325.75 C51.36 281.07, 90.52 232.45, 140.57 172.54 M7.39 325.75 C59.14 268.02, 110.41 208.43, 140.57 172.54 M9.75 329.13 C61.53 271.8, 106.35 221.39, 140.31 178.94 M9.75 329.13 C41 297.39, 68.33 267.24, 140.31 178.94 M12.11 332.51 C46.26 290.05, 82.34 253.74, 140.7 184.58 M12.11 332.51 C61.73 271.41, 113.69 213.27, 140.7 184.58 M15.13 335.13 C49.7 294.61, 84.35 251.91, 140.44 190.98 M15.13 335.13 C46.95 294.73, 83.58 253.56, 140.44 190.98 M18.81 337 C63.14 293.67, 100.02 242.23, 140.18 197.38 M18.81 337 C57.01 294.29, 96.23 250.58, 140.18 197.38 M23.14 338.12 C54.42 303.45, 85.04 266.85, 140.57 203.02 M23.14 338.12 C50.99 306.51, 78.69 276.8, 140.57 203.02 M27.47 339.23 C73.89 289.2, 115.39 236.45, 140.31 209.42 M27.47 339.23 C61.92 301.27, 98.36 258.71, 140.31 209.42 M32.46 339.59 C54 311.94, 84.91 282.19, 140.71 215.06 M32.46 339.59 C72.75 294.12, 114.74 247.46, 140.71 215.06 M38.1 339.2 C54.7 311.04, 84.56 286.05, 140.44 221.46 M38.1 339.2 C64.54 305.47, 92.79 276.12, 140.44 221.46 M43.09 339.56 C83.43 297.44, 114.24 253.09, 140.18 227.86 M43.09 339.56 C63.14 313.54, 86.25 290.12, 140.18 227.86 M48.07 339.92 C79.97 308.43, 110.19 270.75, 140.58 233.5 M48.07 339.92 C80.6 302.13, 116.66 262.47, 140.58 233.5 M53.72 339.52 C86.94 306.75, 119.03 268.81, 140.32 239.9 M53.72 339.52 C72.82 315.49, 91.93 296.73, 140.32 239.9 M58.7 339.88 C89.72 300.9, 115.22 272.92, 140.71 245.54 M58.7 339.88 C81.62 311.87, 107.39 284.99, 140.71 245.54 M64.35 339.49 C90.15 309.67, 113.16 284.43, 140.45 251.94 M64.35 339.49 C93.9 304.35, 119.79 272.46, 140.45 251.94 M69.33 339.85 C88.45 317.84, 112.13 289.19, 140.19 258.34 M69.33 339.85 C83.56 320.6, 100.68 303.56, 140.19 258.34 M74.98 339.45 C91.26 320.05, 111.51 296.11, 140.58 263.98 M74.98 339.45 C99.68 309.96, 127.75 278.21, 140.58 263.98 M79.96 339.81 C98.56 313.27, 122.92 286.54, 140.32 270.38 M79.96 339.81 C96.95 323.77, 114.35 305.53, 140.32 270.38 M84.95 340.17 C100.79 321.95, 115.25 304.22, 140.71 276.02 M84.95 340.17 C97.99 324.2, 112.11 309.67, 140.71 276.02 M90.59 339.78 C105.57 326.89, 119.84 312.99, 140.45 282.42 M90.59 339.78 C111.75 318.96, 130.02 297.92, 140.45 282.42 M95.58 340.14 C112.88 321.21, 124.52 300.61, 140.19 288.82 M95.58 340.14 C107.05 324.06, 121.46 310.01, 140.19 288.82 M101.22 339.74 C108.09 331.99, 120.34 319.68, 140.59 294.46 M101.22 339.74 C113.09 327.43, 121.36 315.7, 140.59 294.46 M108.18 337.84 C117.95 324.54, 121.09 317.3, 140.32 300.86 M108.18 337.84 C114.47 329.27, 122.07 319.52, 140.32 300.86 M114.48 336.69 C121.26 324.63, 135.99 314.04, 140.72 306.5 M114.48 336.69 C122.1 324.96, 132.94 317.06, 140.72 306.5 M120.12 336.3 C124.2 328.6, 130.7 323.07, 139.15 314.41 M120.12 336.3 C128.16 329.62, 133.24 323.1, 139.15 314.41 M124.45 337.41 C124.49 334.08, 129.91 327.02, 136.92 323.07 M124.45 337.41 C126.69 331.27, 131.62 328.23, 136.92 323.07" stroke="#a5d8ff" stroke-width="0.5" fill="none"></path><path d="M32 0 M32 0 C55.88 1.72, 89.21 2.36, 108 0 M32 0 C58.93 1.52, 87.78 1.61, 108 0 M108 0 C126.34 -0.93, 137.06 9.04, 140 32 M108 0 C131.56 -4.24, 140.3 9.54, 140 32 M140 32 C138.65 109.83, 138.46 187.74, 140 305.6 M140 32 C141.17 131.07, 143.03 232.89, 140 305.6 M140 305.6 C136.8 325.61, 133.31 341.27, 108 337.6 M140 305.6 C142.59 328.29, 126.21 341.18, 108 337.6 M108 337.6 C89.77 337.27, 72.31 334.38, 32 337.6 M108 337.6 C84.76 337.82, 62.29 338.12, 32 337.6 M32 337.6 C13.35 339.62, 3.09 323.98, 0 305.6 M32 337.6 C12.66 340.55, 2.77 328.25, 0 305.6 M0 305.6 C-3.21 234.91, -3.35 168.78, 0 32 M0 305.6 C-4.56 249.44, -3.47 191.66, 0 32 M0 32 C-2.18 9.33, 7.37 1.28, 32 0 M0 32 C2.48 13.06, 12.11 3.65, 32 0" stroke="#1e1e1e" stroke-width="1" fill="none"></path></g><g stroke-linecap="round" transform="translate(229.19998168945312 44.40000915527344) rotate(0 58 17.5)"><path d="M2.33 2.02 C2.33 2.02, 2.33 2.02, 2.33 2.02 M2.33 2.02 C2.33 2.02, 2.33 2.02, 2.33 2.02 M0.76 9.93 C6.26 8.43, 8.54 4.04, 9.28 0.12 M0.76 9.93 C2.42 7.94, 4.54 4.24, 9.28 0.12 M1.15 15.57 C0.56 12.29, 6.24 7.83, 14.27 0.48 M1.15 15.57 C5.36 11.67, 9.53 8.96, 14.27 0.48 M1.54 21.22 C6.02 17, 17.36 3.62, 19.91 0.09 M1.54 21.22 C7.15 15.83, 9.57 11.15, 19.91 0.09 M1.28 27.62 C4.91 23.39, 9.02 14.62, 24.9 0.45 M1.28 27.62 C7.98 17.79, 15.43 9.93, 24.9 0.45 M2.99 31.75 C9.6 21.71, 25 11.02, 29.89 0.81 M2.99 31.75 C12.95 20.88, 20.41 10.62, 29.89 0.81 M5.35 35.13 C21.63 19.15, 30.78 8.32, 35.53 0.41 M5.35 35.13 C11.63 27.29, 21.9 19.01, 35.53 0.41 M11 34.73 C20.67 25.4, 29.37 10.02, 40.52 0.77 M11 34.73 C21.75 22.92, 34.91 10.6, 40.52 0.77 M15.98 35.09 C23.35 22.1, 36.28 12.8, 46.16 0.38 M15.98 35.09 C25.56 19.96, 40.84 8.54, 46.16 0.38 M21.63 34.7 C30.22 24.52, 34.73 15.12, 51.15 0.74 M21.63 34.7 C27.55 27.53, 35.72 16.77, 51.15 0.74 M26.61 35.06 C30.68 23.53, 40.89 14.96, 56.79 0.34 M26.61 35.06 C30.52 28.65, 39.98 18.69, 56.79 0.34 M31.6 35.42 C39.64 27.16, 51.07 16.36, 61.78 0.7 M31.6 35.42 C42.68 24.11, 50.85 13.56, 61.78 0.7 M37.24 35.02 C45.46 24.08, 51.5 17.33, 67.42 0.31 M37.24 35.02 C44.93 24.11, 52.97 14.57, 67.42 0.31 M42.23 35.38 C54.51 26.79, 55.42 19.99, 72.41 0.67 M42.23 35.38 C47.9 27.45, 57.01 17.57, 72.41 0.67 M47.87 34.99 C56.26 20.45, 70.15 10.86, 77.4 1.03 M47.87 34.99 C58.94 22.2, 69.87 9.43, 77.4 1.03 M52.86 35.35 C59.54 27.83, 71.58 14.68, 83.04 0.63 M52.86 35.35 C61.55 22.5, 69.6 15.45, 83.04 0.63 M58.5 34.96 C67.05 27.15, 70.65 16.26, 88.03 0.99 M58.5 34.96 C65.82 27.38, 70.74 18.47, 88.03 0.99 M63.49 35.32 C74.13 25.38, 86.13 11.44, 93.67 0.6 M63.49 35.32 C68.81 28.58, 76.14 17.9, 93.67 0.6 M69.13 34.92 C77.66 24.19, 82.71 14.74, 98.66 0.96 M69.13 34.92 C76.61 23.8, 85.49 17.12, 98.66 0.96 M74.12 35.28 C81.62 30.95, 90.69 22.47, 104.3 0.56 M74.12 35.28 C83.06 25.41, 92.99 12.43, 104.3 0.56 M79.11 35.64 C85.02 26.47, 97.29 18.59, 109.29 0.92 M79.11 35.64 C88.11 25.05, 98.57 12.44, 109.29 0.92 M84.75 35.25 C91.9 32.51, 97.31 23.6, 112.96 2.79 M84.75 35.25 C90.52 29.38, 98.35 21.24, 112.96 2.79 M89.74 35.61 C97.8 24.1, 113.77 10.73, 115.98 5.42 M89.74 35.61 C98.84 25.55, 112.91 11.06, 115.98 5.42 M95.38 35.21 C103.46 27.24, 107.38 25.1, 115.72 11.82 M95.38 35.21 C102.93 25.84, 107.13 17.53, 115.72 11.82 M100.37 35.57 C106.79 31.52, 113.15 23.96, 116.11 17.46 M100.37 35.57 C104.14 28.48, 112.14 24.6, 116.11 17.46 M106.01 35.18 C108.09 33.91, 109.31 32.55, 115.85 23.86 M106.01 35.18 C109.94 31.99, 110.78 27.2, 115.85 23.86" stroke="#a5d8ff" stroke-width="0.5" fill="none"></path><path d="M8.75 0 M8.75 0 C34.97 1.18, 64.55 -0.06, 107.25 0 M8.75 0 C37.11 1.62, 62.26 -0.99, 107.25 0 M107.25 0 C110.82 -2.3, 117.22 0.84, 116 8.75 M107.25 0 C109.53 -4.04, 112.28 -0.32, 116 8.75 M116 8.75 C118.99 10.9, 115.53 14.05, 116 26.25 M116 8.75 C117.16 14.91, 116.3 19.42, 116 26.25 M116 26.25 C116.54 29.29, 113.76 37.6, 107.25 35 M116 26.25 C113.43 28.38, 111.64 38.82, 107.25 35 M107.25 35 C71.7 34.52, 33.49 39.3, 8.75 35 M107.25 35 C73.03 36.07, 37.58 34.11, 8.75 35 M8.75 35 C1.44 38.7, -1.73 34.88, 0 26.25 M8.75 35 C5.8 34.09, 2.72 33.46, 0 26.25 M0 26.25 C-2.98 21.83, 3.04 12.47, 0 8.75 M0 26.25 C0.09 20.99, 0.89 15.9, 0 8.75 M0 8.75 C1.8 5.71, 4.1 -0.66, 8.75 0 M0 8.75 C4.44 -0.01, 5.44 -1.22, 8.75 0" stroke="#1e1e1e" stroke-width="1" fill="none"></path></g><g transform="translate(240.14002227783203 49.40000915527344) rotate(0 47.059959411621094 12.5)"><text x="47.059959411621094" y="0" font-family="Virgil, Segoe UI Emoji" font-size="20px" fill="#1e1e1e" text-anchor="middle" style="white-space: pre;" direction="ltr" dominant-baseline="text-before-edge">async-c.js</text></g><g stroke-linecap="round" transform="translate(250.00003051757812 265.20001220703125) rotate(0 40.4000244140625 17.5)"><path d="M2.33 2.02 C2.33 2.02, 2.33 2.02, 2.33 2.02 M2.33 2.02 C2.33 2.02, 2.33 2.02, 2.33 2.02 M0.76 9.93 C1.07 6.87, 4.11 5.46, 9.28 0.12 M0.76 9.93 C3.49 8.36, 5.91 4.77, 9.28 0.12 M1.15 15.57 C4.41 10.8, 11.44 2.17, 14.27 0.48 M1.15 15.57 C5.35 10.04, 11.01 5.23, 14.27 0.48 M1.54 21.22 C9.71 17.03, 9.76 11.97, 19.91 0.09 M1.54 21.22 C7.32 15.8, 10.2 10.58, 19.91 0.09 M1.28 27.62 C6.46 19.52, 18.09 8.91, 24.9 0.45 M1.28 27.62 C7.92 20.49, 16.66 12.32, 24.9 0.45 M2.99 31.75 C10.25 27.59, 16.02 14.21, 29.89 0.81 M2.99 31.75 C10 22.21, 16.21 15.02, 29.89 0.81 M5.35 35.13 C17.29 26.5, 21.11 19.67, 35.53 0.41 M5.35 35.13 C17.38 23.59, 24.69 10.77, 35.53 0.41 M11 34.73 C21.19 28.67, 28.98 15.28, 40.52 0.77 M11 34.73 C22.03 21.05, 31.81 9.88, 40.52 0.77 M15.98 35.09 C27.12 27.94, 33.76 14.43, 46.16 0.38 M15.98 35.09 C25.77 21.84, 36.98 13.92, 46.16 0.38 M20.97 35.45 C29.78 22.47, 36.66 16.18, 51.15 0.74 M20.97 35.45 C30.11 26.27, 35.59 18.33, 51.15 0.74 M26.61 35.06 C37.66 28.97, 48.02 15.78, 56.79 0.34 M26.61 35.06 C34.91 24.14, 45.24 12.49, 56.79 0.34 M31.6 35.42 C34.38 30.6, 43.8 23.77, 61.78 0.7 M31.6 35.42 C41.43 21.01, 52.86 7.93, 61.78 0.7 M37.24 35.02 C47.09 28.07, 53.24 14.44, 66.77 1.06 M37.24 35.02 C45.77 28.01, 50.71 16.4, 66.77 1.06 M42.23 35.38 C51.48 21.52, 64.9 6.69, 72.41 0.67 M42.23 35.38 C53.39 24.35, 63.05 9.42, 72.41 0.67 M47.87 34.99 C55.8 25.73, 59.58 16.99, 76.74 1.78 M47.87 34.99 C58.74 24.17, 69.86 11.37, 76.74 1.78 M52.86 35.35 C59.19 21.09, 73.39 13.34, 79.76 4.41 M52.86 35.35 C62.85 23.72, 68.89 16.42, 79.76 4.41 M57.85 35.71 C68.23 23.25, 72.66 13.98, 82.78 7.03 M57.85 35.71 C69.86 23.44, 78.14 14.51, 82.78 7.03 M63.49 35.32 C70.85 31.35, 75.46 27.28, 82.52 13.43 M63.49 35.32 C68.07 32.33, 70.39 24.63, 82.52 13.43 M68.48 35.68 C75.2 34.23, 79.2 24.5, 82.91 19.07 M68.48 35.68 C75.29 30.97, 78.71 24.07, 82.91 19.07 M73.46 36.04 C79.47 34.82, 77.94 27.58, 82.65 25.47 M73.46 36.04 C76.68 34.06, 78.62 30.55, 82.65 25.47" stroke="#a5d8ff" stroke-width="0.5" fill="none"></path><path d="M8.75 0 M8.75 0 C19.77 -1.54, 36.42 2.65, 72.05 0 M8.75 0 C25.79 0.94, 39.63 0.97, 72.05 0 M72.05 0 C79.13 1.03, 83.05 3.04, 80.8 8.75 M72.05 0 C81.56 -3.49, 79.22 -1.04, 80.8 8.75 M80.8 8.75 C79.54 15.13, 78.17 16.57, 80.8 26.25 M80.8 8.75 C79.41 13.63, 80.14 20.71, 80.8 26.25 M80.8 26.25 C79.01 28.1, 79.77 31.4, 72.05 35 M80.8 26.25 C78.82 28.47, 77.93 36.25, 72.05 35 M72.05 35 C60.71 36.65, 42.58 32.67, 8.75 35 M72.05 35 C53.16 35.24, 31.33 33.78, 8.75 35 M8.75 35 C0.65 31.57, -0.79 31.98, 0 26.25 M8.75 35 C2.18 38.88, -2.15 34.66, 0 26.25 M0 26.25 C3.46 19.64, -2.36 21.48, 0 8.75 M0 26.25 C0.07 18.33, 0.31 13.82, 0 8.75 M0 8.75 C2.48 3.11, 3.02 3.21, 8.75 0 M0 8.75 C-0.05 4.99, 5.65 4.16, 8.75 0" stroke="#1e1e1e" stroke-width="1" fill="none"></path></g><g transform="translate(273.93006896972656 270.20001220703125) rotate(0 16.469985961914062 12.5)"><text x="16.469985961914062" y="0" font-family="Virgil, Segoe UI Emoji" font-size="20px" fill="#1e1e1e" text-anchor="middle" style="white-space: pre;" direction="ltr" dominant-baseline="text-before-edge">c.js</text></g><g stroke-linecap="round"><g transform="translate(293.9999694824219 77.20005798339844) rotate(0 -2.0571478581056226 88.1052941768989)"><path d="M-2.02 -2.74 C-3.24 26.68, -5.51 145.89, -6.2 176.4 M2.08 1.95 C1.62 31.68, -0.57 149.96, -0.99 178.95" stroke="#1e1e1e" stroke-width="1" fill="none"></path></g><g transform="translate(293.9999694824219 77.20005798339844) rotate(0 -2.0571478581056226 88.1052941768989)"><path d="M-14.68 147.45 C-10.32 157.38, -1.32 166.84, -0.85 179.79 M-9.02 150.07 C-6.37 162.54, -2.74 170.81, -2.11 178.62" stroke="#1e1e1e" stroke-width="1" fill="none"></path></g><g transform="translate(293.9999694824219 77.20005798339844) rotate(0 -2.0571478581056226 88.1052941768989)"><path d="M5.84 147.8 C3.21 157.31, 5.21 166.65, -0.85 179.79 M11.5 150.42 C6.29 162.92, 2.05 171.05, -2.11 178.62" stroke="#1e1e1e" stroke-width="1" fill="none"></path></g></g><mask></mask><g stroke-linecap="round"><g transform="translate(129.19998168945312 61.20005798339844) rotate(0 50.4000244140625 -0.000030517578125)"><path d="M0 0 C16.8 0, 84 0, 100.8 0 M0 0 C16.8 0, 84 0, 100.8 0" stroke="#1e1e1e" stroke-width="1" fill="none"></path></g><g transform="translate(129.19998168945312 61.20005798339844) rotate(0 50.4000244140625 -0.000030517578125)"><path d="M72.61 10.26 C83.24 6.39, 93.87 2.52, 100.8 0 M72.61 10.26 C82.22 6.76, 91.82 3.27, 100.8 0" stroke="#1e1e1e" stroke-width="1" fill="none"></path></g><g transform="translate(129.19998168945312 61.20005798339844) rotate(0 50.4000244140625 -0.000030517578125)"><path d="M72.61 -10.26 C83.24 -6.39, 93.87 -2.52, 100.8 0 M72.61 -10.26 C82.22 -6.76, 91.82 -3.27, 100.8 0" stroke="#1e1e1e" stroke-width="1" fill="none"></path></g></g><mask></mask></svg>