<svg version="1.1" xmlns="http://www.w3.org/2000/svg" viewBox="0 0 473.79998779296875 351.5999755859375" width="473.79998779296875" height="351.5999755859375">
  <!-- svg-source:excalidraw -->
  
  <defs>
    <style class="style-fonts">
      @font-face {
        font-family: "Virgil";
        src: url("https://excalidraw.com/Virgil.woff2");
      }
      @font-face {
        font-family: "Cascadia";
        src: url("https://excalidraw.com/Cascadia.woff2");
      }
    </style>
    
  </defs>
  <rect x="0" y="0" width="473.79998779296875" height="351.5999755859375" fill="#ffffff"></rect><g stroke-linecap="round" transform="translate(10 10) rotate(0 226.89999389648438 165.79998779296875)"><path d="M7.86 8.16 C7.86 8.16, 7.86 8.16, 7.86 8.16 M7.86 8.16 C7.86 8.16, 7.86 8.16, 7.86 8.16 M3.66 19.09 C9.62 9.02, 14.62 5.3, 18.1 2.48 M3.66 19.09 C7.88 14.6, 16.67 8.07, 18.1 2.48 M2.75 26.24 C8.43 15.62, 11.35 8.76, 24.4 1.33 M2.75 26.24 C10.39 18.1, 18.15 7.53, 24.4 1.33 M1.83 33.39 C11.4 23.82, 18.73 13.82, 30.7 0.18 M1.83 33.39 C10.36 25.18, 18.75 13.4, 30.7 0.18 M1.57 39.79 C11.89 26.58, 17.96 21.61, 34.37 2.05 M1.57 39.79 C13.4 26.2, 23.72 16.35, 34.37 2.05 M1.96 45.43 C11.59 37.91, 18.71 25.34, 39.36 2.41 M1.96 45.43 C17.09 27.57, 32.62 13.12, 39.36 2.41 M1.7 51.83 C22.08 30.38, 34.03 13.69, 45 2.02 M1.7 51.83 C15.92 35.32, 29.96 16.76, 45 2.02 M1.44 58.23 C8.47 46.42, 24.72 32.36, 49.99 2.38 M1.44 58.23 C19.05 37.01, 37.43 13.84, 49.99 2.38 M1.83 63.87 C13.58 45.53, 33.11 24.32, 55.63 1.98 M1.83 63.87 C14.27 49.32, 27.67 34.23, 55.63 1.98 M1.57 70.27 C26.93 44.2, 44.71 15.36, 60.62 2.34 M1.57 70.27 C17.4 52.31, 33.57 34.81, 60.62 2.34 M1.97 75.91 C17.16 56.8, 32.66 44.35, 66.26 1.95 M1.97 75.91 C20.24 54.55, 38.64 34.27, 66.26 1.95 M1.71 82.31 C21.64 55.13, 50.82 33.96, 71.25 2.31 M1.71 82.31 C20.97 61.77, 41.27 38.17, 71.25 2.31 M1.44 88.71 C19.96 60.45, 47.06 35.51, 76.89 1.91 M1.44 88.71 C24.3 60.85, 45.39 34.47, 76.89 1.91 M1.84 94.35 C27.86 61.54, 61.71 30.54, 81.88 2.27 M1.84 94.35 C22.14 73.69, 42.23 51.43, 81.88 2.27 M1.58 100.75 C23.07 77.57, 49.07 43.48, 87.52 1.88 M1.58 100.75 C19.69 81.75, 36.63 57.5, 87.52 1.88 M1.97 106.39 C27.95 79.2, 48.41 52.92, 92.51 2.24 M1.97 106.39 C36.5 68.5, 67.99 31.05, 92.51 2.24 M1.71 112.79 C22.51 90.33, 48.75 61.87, 98.15 1.85 M1.71 112.79 C32.02 76.08, 65.49 41.72, 98.15 1.85 M1.45 119.19 C28.91 90.34, 53.85 54.17, 103.14 2.21 M1.45 119.19 C36.84 77.94, 75.06 40.25, 103.14 2.21 M1.84 124.83 C30.31 83.27, 67.33 49.82, 108.78 1.81 M1.84 124.83 C36.64 86.01, 69.34 45.86, 108.78 1.81 M1.58 131.23 C34.47 90.07, 68.3 45.52, 113.77 2.17 M1.58 131.23 C33.8 96.59, 61.64 64.48, 113.77 2.17 M1.98 136.87 C38.66 91.65, 74.85 53.26, 119.41 1.78 M1.98 136.87 C48.77 82.85, 98.96 30.62, 119.41 1.78 M1.72 143.27 C34.21 109.18, 59 77.21, 124.4 2.14 M1.72 143.27 C26.61 115, 53.09 85.57, 124.4 2.14 M1.45 149.67 C48.68 99.93, 95.17 42.1, 130.04 1.74 M1.45 149.67 C36.28 108.1, 71.07 67.92, 130.04 1.74 M1.85 155.31 C44.29 109.58, 84 65.75, 135.03 2.1 M1.85 155.31 C41.2 106.25, 80 64.11, 135.03 2.1 M1.59 161.71 C32.24 120.92, 73.72 84.43, 140.67 1.71 M1.59 161.71 C51.99 106.35, 98.74 50.43, 140.67 1.71 M1.98 167.35 C47.06 114.15, 89.67 61.26, 145.66 2.07 M1.98 167.35 C45.17 123.02, 84.75 78.63, 145.66 2.07 M1.72 173.75 C42.77 126.63, 80.31 81.18, 150.65 2.43 M1.72 173.75 C31.68 135.69, 61.17 99.51, 150.65 2.43 M1.46 180.14 C50.7 125.85, 97.89 68.15, 156.29 2.03 M1.46 180.14 C49.3 129, 95.13 72.08, 156.29 2.03 M1.85 185.79 C55.37 127.03, 108.95 68.21, 161.28 2.39 M1.85 185.79 C46.21 134.1, 90.95 84.65, 161.28 2.39 M1.59 192.19 C43.08 141.58, 85 90.98, 166.92 2 M1.59 192.19 C60.85 123.61, 121.97 53.29, 166.92 2 M1.99 197.83 C48.85 145.96, 99.85 86.43, 171.91 2.36 M1.99 197.83 C71.73 119.37, 137.31 39.8, 171.91 2.36 M1.72 204.23 C68.76 127.25, 131.82 55.26, 177.55 1.96 M1.72 204.23 C43.29 160.49, 83.4 112.29, 177.55 1.96 M1.46 210.62 C44.6 160.19, 87.39 111.84, 182.54 2.32 M1.46 210.62 C42.36 166.97, 78.2 124.55, 182.54 2.32 M1.86 216.27 C67.01 144.18, 126.5 70.17, 188.18 1.93 M1.86 216.27 C65.11 142.64, 125.62 72.59, 188.18 1.93 M1.6 222.66 C73.65 140.66, 148.02 53.31, 193.17 2.29 M1.6 222.66 C75.57 137.68, 147.99 54.32, 193.17 2.29 M1.99 228.31 C72.52 143.9, 146.75 65.22, 198.81 1.9 M1.99 228.31 C60.72 159.94, 117.62 92.28, 198.81 1.9 M1.73 234.71 C47.07 186.92, 89.02 136.87, 203.8 2.26 M1.73 234.71 C49.17 182.89, 97.41 129.63, 203.8 2.26 M1.47 241.1 C66.08 167.94, 128.42 96.45, 209.44 1.86 M1.47 241.1 C78.79 149.96, 155.77 62.16, 209.44 1.86 M1.86 246.75 C58.53 183.5, 114 121.96, 214.43 2.22 M1.86 246.75 C55.46 186.95, 109.04 126.3, 214.43 2.22 M1.6 253.14 C68.32 175.3, 132.18 103.44, 220.07 1.83 M1.6 253.14 C55.31 190.84, 106.92 130.52, 220.07 1.83 M2 258.79 C92.06 159.92, 174.38 59.95, 225.06 2.19 M2 258.79 C84.07 164.35, 163.7 71.52, 225.06 2.19 M1.73 265.19 C89.5 161.8, 181.26 57.75, 230.7 1.79 M1.73 265.19 C85.78 168.43, 171.63 70.03, 230.7 1.79 M1.47 271.58 C69.94 192.47, 141.4 115.84, 235.69 2.15 M1.47 271.58 C81.6 181.53, 158.98 93.65, 235.69 2.15 M1.87 277.23 C69.8 198.47, 132.71 125.06, 241.33 1.76 M1.87 277.23 C73.56 196.33, 143.7 114.32, 241.33 1.76 M1.61 283.62 C93.87 177.64, 188.31 70.72, 246.32 2.12 M1.61 283.62 C81.77 195.98, 157.28 110.15, 246.32 2.12 M2 289.27 C91.74 184.45, 180.26 80.85, 251.96 1.72 M2 289.27 C80.48 194.89, 161.75 105.06, 251.96 1.72 M1.74 295.66 C89.07 193.37, 177.31 93.67, 256.95 2.08 M1.74 295.66 C77.9 209.59, 152.6 122.36, 256.95 2.08 M2.13 301.31 C79.63 210.5, 162.51 114.61, 262.59 1.69 M2.13 301.31 C100.62 184.06, 203.87 67.03, 262.59 1.69 M2.53 306.95 C92.09 202.45, 180.59 97.72, 267.58 2.05 M2.53 306.95 C78.47 219.99, 152.98 134.67, 267.58 2.05 M2.27 313.35 C76.14 228.66, 153.87 141.91, 272.56 2.41 M2.27 313.35 C81.6 227.24, 157.41 140.11, 272.56 2.41 M4.63 316.73 C62.83 249.56, 117.67 184.48, 278.21 2.01 M4.63 316.73 C88.33 221.72, 170.51 125.95, 278.21 2.01 M6.99 320.11 C90.86 221.9, 173 127.61, 283.19 2.37 M6.99 320.11 C107.32 203.93, 210.82 85.76, 283.19 2.37 M9.36 323.49 C87.32 232.5, 164.22 145.1, 288.84 1.98 M9.36 323.49 C119.1 196.56, 229.49 71.68, 288.84 1.98 M11.72 326.86 C96.02 235.79, 178.44 139.8, 293.82 2.34 M11.72 326.86 C81.15 245.96, 153.29 163.35, 293.82 2.34 M14.74 329.49 C116.25 215.49, 217.1 98.02, 299.47 1.94 M14.74 329.49 C70.28 261.44, 131.06 192.42, 299.47 1.94 M19.07 330.6 C92.21 248.45, 163.8 168.89, 304.45 2.3 M19.07 330.6 C120.21 213.68, 222.47 94.76, 304.45 2.3 M24.05 330.96 C119.18 224.54, 213.76 115.76, 310.1 1.91 M24.05 330.96 C91.71 253.29, 160.01 175.78, 310.1 1.91 M28.39 332.08 C99.47 250.4, 171.15 168.71, 315.08 2.27 M28.39 332.08 C117.89 229.33, 209.66 123.17, 315.08 2.27 M33.37 332.44 C135.36 209.6, 240.06 91.15, 320.73 1.88 M33.37 332.44 C141.13 210.04, 247.96 87.3, 320.73 1.88 M38.36 332.8 C115.43 249.25, 186.46 165.32, 325.71 2.24 M38.36 332.8 C154.53 201.95, 268.84 72.36, 325.71 2.24 M44 332.4 C136.45 226.19, 229.68 121.17, 331.36 1.84 M44 332.4 C144.84 218.46, 240.27 108.52, 331.36 1.84 M48.99 332.76 C134.73 229.98, 223.53 127.76, 336.34 2.2 M48.99 332.76 C125.16 246.21, 199.89 161.62, 336.34 2.2 M54.63 332.37 C150.25 224.38, 242 119.59, 341.99 1.81 M54.63 332.37 C130.34 246.13, 206.51 160.56, 341.99 1.81 M59.62 332.73 C153.26 220.22, 251.39 110.85, 346.97 2.17 M59.62 332.73 C120.19 262.68, 179.97 193.46, 346.97 2.17 M65.26 332.34 C173.72 201.62, 283.03 75.22, 352.62 1.77 M65.26 332.34 C148.98 235.58, 233.12 137.62, 352.62 1.77 M70.25 332.7 C159.85 227.49, 255.17 118.59, 357.6 2.13 M70.25 332.7 C172.44 214.72, 274.4 97.41, 357.6 2.13 M75.89 332.3 C131.93 265.76, 191.3 196.68, 363.25 1.74 M75.89 332.3 C141.87 260.8, 204.9 187.39, 363.25 1.74 M80.88 332.66 C189.03 209.86, 297.14 86.72, 368.23 2.1 M80.88 332.66 C147.86 255.76, 214.58 179.12, 368.23 2.1 M86.52 332.27 C191.01 214.78, 287.58 99.46, 373.88 1.7 M86.52 332.27 C150.03 256.98, 214.75 184.39, 373.88 1.7 M91.51 332.63 C160.88 251.95, 233.49 166.78, 378.86 2.06 M91.51 332.63 C205.87 202.09, 320.14 70.34, 378.86 2.06 M96.5 332.99 C174.6 240.17, 256.81 146.24, 383.85 2.42 M96.5 332.99 C189.1 231.21, 280.15 126.86, 383.85 2.42 M102.14 332.59 C216.23 202.11, 332.93 69.01, 389.49 2.03 M102.14 332.59 C161.95 265.65, 223.32 197.05, 389.49 2.03 M107.13 332.95 C205.41 221.26, 304.02 108.36, 394.48 2.39 M107.13 332.95 C200.73 228.52, 294.53 120.98, 394.48 2.39 M112.77 332.56 C210.46 219.79, 306.63 106.34, 400.12 1.99 M112.77 332.56 C189.19 245.86, 264.14 159.72, 400.12 1.99 M117.76 332.92 C214.76 214.44, 313.97 101.64, 405.11 2.35 M117.76 332.92 C202.91 231.32, 288.49 131.95, 405.11 2.35 M123.4 332.52 C204.98 236.21, 291.7 138.3, 410.75 1.96 M123.4 332.52 C227.64 215.14, 331.16 96.13, 410.75 1.96 M128.39 332.88 C240.6 204.81, 354.79 73.6, 415.74 2.32 M128.39 332.88 C216.4 232.07, 304.82 128.85, 415.74 2.32 M134.03 332.49 C236.71 214.86, 334.95 99.43, 422.7 0.42 M134.03 332.49 C230.56 221.73, 325.96 109.15, 422.7 0.42 M139.02 332.85 C214.51 246.67, 292.81 158.27, 427.03 1.53 M139.02 332.85 C212.16 249.67, 282.58 170.91, 427.03 1.53 M144.66 332.45 C219.36 241.76, 298.47 150.45, 431.36 2.65 M144.66 332.45 C207.68 256.74, 273.51 180.41, 431.36 2.65 M149.65 332.81 C215.78 255.34, 283.41 180.6, 435.69 3.76 M149.65 332.81 C263.16 200.51, 375.95 71.78, 435.69 3.76 M155.29 332.42 C249.98 228.09, 344.55 119.19, 440.02 4.88 M155.29 332.42 C243.42 235.79, 330.81 136.99, 440.02 4.88 M160.28 332.78 C226.62 256.69, 290.57 183.98, 443.7 6.74 M160.28 332.78 C246.47 235.39, 328.65 139.54, 443.7 6.74 M165.92 332.38 C232.45 255.15, 300.14 176.32, 446.71 9.37 M165.92 332.38 C230.21 254.19, 298.71 176.93, 446.71 9.37 M170.91 332.74 C249.45 244.92, 328.67 158.94, 449.73 11.99 M170.91 332.74 C249.59 245.38, 328.72 155.76, 449.73 11.99 M176.55 332.35 C240.6 254.84, 304.11 180.42, 452.1 15.37 M176.55 332.35 C268.32 221.14, 362.21 113.43, 452.1 15.37 M181.54 332.71 C265.62 235.95, 345.29 143.46, 453.15 20.26 M181.54 332.71 C263.3 233.91, 347.35 136.44, 453.15 20.26 M187.18 332.32 C238 267.99, 294.74 207.54, 454.85 24.39 M187.18 332.32 C277.03 232.32, 365.82 130.33, 454.85 24.39 M192.17 332.68 C261.56 247.45, 334.86 165.58, 455.9 29.28 M192.17 332.68 C287.84 216.22, 385.97 104.51, 455.9 29.28 M197.81 332.28 C277.32 233.29, 358.08 139.28, 456.95 34.17 M197.81 332.28 C289.25 227.56, 379.36 124.17, 456.95 34.17 M202.8 332.64 C273.02 253.73, 339.77 178.33, 456.69 40.57 M202.8 332.64 C265.65 253.57, 330.99 178.04, 456.69 40.57 M207.79 333 C271.78 265.13, 330.24 190.06, 456.43 46.97 M207.79 333 C291.22 232.78, 374.79 136.35, 456.43 46.97 M213.43 332.61 C275.14 265.55, 333.48 196.74, 456.83 52.61 M213.43 332.61 C306.36 224.43, 400.2 117.51, 456.83 52.61 M218.42 332.97 C301.3 244.22, 383.26 151.49, 456.56 59.01 M218.42 332.97 C285.77 252.22, 354.98 171.07, 456.56 59.01 M224.06 332.57 C272.87 276.36, 321.4 218.61, 456.96 64.65 M224.06 332.57 C318.11 229.28, 410.58 123.03, 456.96 64.65 M229.05 332.93 C279.91 275.5, 324.7 225.7, 456.7 71.05 M229.05 332.93 C322.25 230.72, 412.48 127.54, 456.7 71.05 M234.69 332.54 C303.57 254.17, 372.34 173.2, 456.44 77.45 M234.69 332.54 C310.96 245.93, 383.84 162.77, 456.44 77.45 M239.68 332.9 C309.2 246.93, 386.96 163.55, 456.83 83.09 M239.68 332.9 C295.91 268.07, 353.57 199.43, 456.83 83.09 M245.32 332.5 C313.54 255.17, 382.38 180.93, 456.57 89.49 M245.32 332.5 C301.69 267.88, 358.49 202.54, 456.57 89.49 M250.31 332.86 C326.63 249.85, 395.69 167.22, 456.96 95.13 M250.31 332.86 C319.91 254.4, 387.88 175.91, 456.96 95.13 M255.95 332.47 C318.81 255.6, 381.44 186.34, 456.7 101.53 M255.95 332.47 C317.33 260.16, 377.99 190.22, 456.7 101.53 M260.94 332.83 C321.2 270.29, 378.16 199.59, 456.44 107.93 M260.94 332.83 C310.78 276.17, 359.68 220.89, 456.44 107.93 M266.58 332.43 C316.75 278.63, 366.58 220.6, 456.84 113.57 M266.58 332.43 C332.85 254.48, 398.48 175.71, 456.84 113.57 M271.57 332.79 C330.32 267.17, 389.67 205.59, 456.57 119.97 M271.57 332.79 C326.38 270.62, 378.9 210.36, 456.57 119.97 M277.21 332.4 C344.6 257.96, 409.58 177.52, 456.97 125.61 M277.21 332.4 C338.49 262.18, 395.51 195.17, 456.97 125.61 M282.2 332.76 C323.59 283.57, 365.91 238.55, 456.71 132.01 M282.2 332.76 C336.3 270.47, 394.53 203.35, 456.71 132.01 M287.84 332.37 C354.2 258.09, 416.65 176.86, 456.45 138.41 M287.84 332.37 C356.79 257.77, 422.9 181.15, 456.45 138.41 M292.83 332.73 C356.9 257.57, 415.09 189.31, 456.84 144.05 M292.83 332.73 C338.22 276.25, 382.17 223.99, 456.84 144.05 M298.47 332.33 C347.85 276.58, 402.86 217.98, 456.58 150.45 M298.47 332.33 C349.2 273.64, 398.1 218.25, 456.58 150.45 M303.46 332.69 C356.38 280.09, 405.66 218.53, 456.97 156.09 M303.46 332.69 C349.93 282.21, 390.97 230.97, 456.97 156.09 M309.1 332.3 C345.94 292.57, 379.34 255.97, 456.71 162.49 M309.1 332.3 C347.77 289.34, 386.32 243.85, 456.71 162.49 M314.09 332.66 C362.8 269.52, 415.77 216.18, 456.45 168.88 M314.09 332.66 C351.2 287.19, 388.04 243.14, 456.45 168.88 M319.07 333.02 C357.52 289.39, 400.45 239.89, 456.85 174.53 M319.07 333.02 C351.79 292.94, 387.89 250.88, 456.85 174.53 M324.72 332.62 C355.72 301.28, 381.92 266.18, 456.58 180.93 M324.72 332.62 C350.44 302.28, 374.03 272.36, 456.58 180.93 M329.7 332.98 C369.18 285.89, 417.17 229.49, 456.98 186.57 M329.7 332.98 C370.46 289.86, 407.6 244.42, 456.98 186.57 M335.35 332.59 C375.63 283.36, 422.95 233.82, 456.72 192.97 M335.35 332.59 C365.38 295.85, 400.98 259.27, 456.72 192.97 M340.33 332.95 C373.42 291.22, 406.78 253, 456.46 199.36 M340.33 332.95 C372.25 297.11, 402.55 259.09, 456.46 199.36 M345.98 332.55 C377.18 301.7, 407.21 265.3, 456.85 205.01 M345.98 332.55 C378.66 300.65, 405.84 265.87, 456.85 205.01 M350.96 332.91 C392.08 283.19, 435.09 234.41, 456.59 211.4 M350.96 332.91 C392.79 284.84, 433.17 238.45, 456.59 211.4 M356.61 332.52 C395.89 292.19, 431.27 245.96, 456.98 217.05 M356.61 332.52 C379.32 308.93, 401.12 283.04, 456.98 217.05 M361.59 332.88 C391.08 301.79, 412.84 267.98, 456.72 223.45 M361.59 332.88 C396.66 292.76, 429.83 252.82, 456.72 223.45 M367.24 332.48 C395.35 297.52, 430.47 261.95, 456.46 229.84 M367.24 332.48 C396.47 295.81, 430.31 259.1, 456.46 229.84 M372.22 332.84 C404.38 298.18, 437.82 261.45, 456.86 235.49 M372.22 332.84 C396.05 308.75, 419.6 284.23, 456.86 235.49 M377.87 332.45 C402.48 301.85, 423.87 272.65, 456.59 241.88 M377.87 332.45 C403.32 300.38, 433.57 270.12, 456.59 241.88 M382.85 332.81 C401.24 309.32, 426.31 287.52, 456.99 247.53 M382.85 332.81 C397.68 312.65, 417.35 293.78, 456.99 247.53 M388.5 332.42 C413.1 305.34, 439.84 279.4, 456.73 253.93 M388.5 332.42 C406.79 312.61, 423.34 294.09, 456.73 253.93 M393.48 332.78 C413.26 306.97, 438.7 279.21, 456.47 260.32 M393.48 332.78 C418.28 303.6, 444 274.47, 456.47 260.32 M399.13 332.38 C419.18 309.74, 446.52 278.74, 456.86 265.97 M399.13 332.38 C421.64 307.99, 441.45 279.48, 456.86 265.97 M404.11 332.74 C418.23 315.65, 422.3 305.31, 456.6 272.36 M404.11 332.74 C422.15 312.17, 436.28 295.79, 456.6 272.36 M409.76 332.35 C430.22 307.63, 444.71 289.84, 456.99 278.01 M409.76 332.35 C421.3 317.27, 435.15 302.74, 456.99 278.01 M414.74 332.71 C428.64 319.37, 443.84 301.42, 456.73 284.4 M414.74 332.71 C428.19 315.41, 442.22 301.18, 456.73 284.4 M420.39 332.31 C426.81 316.37, 441.59 306.09, 456.47 290.8 M420.39 332.31 C432.24 314.72, 446.3 301.55, 456.47 290.8 M424.06 334.18 C434.79 322.77, 441.97 313.2, 454.24 299.46 M424.06 334.18 C431.22 323.46, 439.56 314.48, 454.24 299.46 M431.02 332.28 C435.93 331.03, 438.57 324.98, 452.01 308.13 M431.02 332.28 C437.67 324.91, 444.69 316.13, 452.01 308.13 M437.32 331.13 C440.78 329.27, 447.94 317.61, 450.44 316.03 M437.32 331.13 C441.23 323.8, 445.4 318.21, 450.44 316.03" stroke="#a5d8ff" stroke-width="0.5" fill="none"></path><path d="M32 0 M32 0 C122.92 0.7, 211.97 0.52, 421.8 0 M32 0 C137.42 -1.58, 243.02 -1.65, 421.8 0 M421.8 0 C442.24 -1.68, 456.06 8.58, 453.8 32 M421.8 0 C445.68 -1.94, 457.21 14.54, 453.8 32 M453.8 32 C451.06 118.78, 451 207.87, 453.8 299.6 M453.8 32 C449.39 127.61, 448.88 223.3, 453.8 299.6 M453.8 299.6 C449.94 318.63, 446.7 331.59, 421.8 331.6 M453.8 299.6 C456.18 320.68, 440.7 332.05, 421.8 331.6 M421.8 331.6 C317.64 330.84, 215.76 329.71, 32 331.6 M421.8 331.6 C341.64 327.81, 262.45 326.34, 32 331.6 M32 331.6 C13.62 330.46, -2.93 323.05, 0 299.6 M32 331.6 C6.76 330.1, -0.53 323.2, 0 299.6 M0 299.6 C5.11 238.07, 1.54 171.67, 0 32 M0 299.6 C3.61 207.45, 2.89 114.11, 0 32 M0 32 C-2.19 8.14, 7.03 0.31, 32 0 M0 32 C-0.83 14.11, 12.68 -0.68, 32 0" stroke="#1e1e1e" stroke-width="1" fill="none"></path></g><g stroke-linecap="round" transform="translate(159.60000610351562 38.00001525878906) rotate(0 78 33.20001220703125)"><path d="M6.16 2.71 C6.16 2.71, 6.16 2.71, 6.16 2.71 M6.16 2.71 C6.16 2.71, 6.16 2.71, 6.16 2.71 M1.96 13.63 C5.99 8.39, 13.7 0.75, 13.12 0.8 M1.96 13.63 C6.72 11.24, 8.05 7.53, 13.12 0.8 M1.7 20.03 C5.45 9.29, 17.54 5.45, 18.1 1.16 M1.7 20.03 C4.68 15.25, 9.56 12.94, 18.1 1.16 M1.44 26.43 C7.41 19.85, 14.72 14.79, 23.09 1.52 M1.44 26.43 C6.54 20.01, 12.66 14.39, 23.09 1.52 M1.84 32.07 C5.43 28.91, 15.6 19.93, 28.73 1.13 M1.84 32.07 C8 26.9, 11.96 18.85, 28.73 1.13 M1.57 38.47 C12.5 24.89, 28.04 8.81, 33.72 1.49 M1.57 38.47 C12.99 28.1, 23.78 13.65, 33.72 1.49 M1.97 44.11 C12.5 30.26, 30.75 13.64, 39.36 1.09 M1.97 44.11 C10.25 32.04, 19.66 22.1, 39.36 1.09 M1.71 50.51 C19.09 32.6, 32.31 22.22, 44.35 1.45 M1.71 50.51 C18.42 29.67, 34.91 13, 44.35 1.45 M2.76 55.4 C17.82 36.41, 30.65 21.31, 49.34 1.81 M2.76 55.4 C13.54 42.78, 26.52 30.59, 49.34 1.81 M4.46 59.53 C21.99 33.98, 39.86 13.44, 54.98 1.42 M4.46 59.53 C15.66 47.03, 27.4 31.19, 54.98 1.42 M6.17 63.66 C20.44 50.33, 34.92 26.44, 59.97 1.78 M6.17 63.66 C21.04 46.4, 35.9 29.76, 59.97 1.78 M9.85 65.53 C26.71 53.87, 35.79 39.99, 65.61 1.38 M9.85 65.53 C22.86 51.06, 33.73 37.31, 65.61 1.38 M14.83 65.89 C35.37 44.33, 53.67 23.55, 70.6 1.74 M14.83 65.89 C29.17 46.57, 47.96 31.13, 70.6 1.74 M20.48 65.5 C38.42 51.13, 47.09 30.02, 76.24 1.35 M20.48 65.5 C41.04 43.52, 57.58 21.29, 76.24 1.35 M25.46 65.86 C41.22 44.5, 52.36 31.67, 81.23 1.71 M25.46 65.86 C37.54 47.81, 51.85 32.99, 81.23 1.71 M30.45 66.22 C46.62 46.29, 67.87 26.38, 86.22 2.07 M30.45 66.22 C40.95 53.03, 50.88 40.64, 86.22 2.07 M36.09 65.83 C57.55 44.27, 71.48 23.13, 91.86 1.68 M36.09 65.83 C55.78 46.1, 70.88 27.16, 91.86 1.68 M41.08 66.19 C59.24 40.74, 81.22 17.78, 96.85 2.04 M41.08 66.19 C57.18 52.47, 69.86 34.03, 96.85 2.04 M46.72 65.79 C72.06 39.98, 93.4 18.2, 102.49 1.64 M46.72 65.79 C59.69 49.23, 76.75 30.28, 102.49 1.64 M51.71 66.15 C68.71 39.69, 91.26 15.61, 107.48 2 M51.71 66.15 C68.3 46.88, 86.28 25.56, 107.48 2 M57.35 65.76 C76.98 43.93, 98.15 21.02, 112.46 2.36 M57.35 65.76 C79.05 45.69, 94.26 21.12, 112.46 2.36 M62.34 66.12 C75.43 47.36, 87.48 29.83, 118.11 1.97 M62.34 66.12 C78.51 47.54, 94.61 32.38, 118.11 1.97 M67.33 66.48 C80.67 48.96, 90.45 37.21, 123.09 2.33 M67.33 66.48 C84.96 45.63, 105.17 23.53, 123.09 2.33 M72.97 66.08 C87.71 52.25, 98.92 36.65, 128.74 1.93 M72.97 66.08 C95.15 43.01, 115.78 18.05, 128.74 1.93 M77.96 66.44 C94.61 56.71, 105.34 37.47, 133.72 2.29 M77.96 66.44 C93.57 46.83, 111.16 28.51, 133.72 2.29 M83.6 66.05 C102.59 41.29, 120.8 18.36, 139.37 1.9 M83.6 66.05 C95.39 53.92, 105.01 40.31, 139.37 1.9 M88.59 66.41 C109.92 41.37, 127.81 19.69, 144.35 2.26 M88.59 66.41 C104.19 45.53, 122.99 27.25, 144.35 2.26 M94.23 66.01 C110 46.51, 130.93 23.26, 148.68 3.37 M94.23 66.01 C104.4 50.28, 118.02 37.27, 148.68 3.37 M99.22 66.37 C115.36 51.76, 126.58 34.69, 152.36 5.24 M99.22 66.37 C111.84 53.46, 124.16 39.08, 152.36 5.24 M104.2 66.73 C113.55 50.66, 129.29 39.49, 155.38 7.87 M104.2 66.73 C124.7 43.19, 142.94 22.06, 155.38 7.87 M109.85 66.34 C125.93 47.9, 138.18 35.52, 156.43 12.75 M109.85 66.34 C126.47 43.47, 147.41 22.83, 156.43 12.75 M114.83 66.7 C126.54 53.54, 138.05 33.85, 156.17 19.15 M114.83 66.7 C123.61 53.71, 133.18 44.18, 156.17 19.15 M120.48 66.3 C130.81 53.43, 136.21 40.38, 155.9 25.55 M120.48 66.3 C128.75 54.64, 141.41 44.1, 155.9 25.55 M125.46 66.66 C129.38 56.5, 138.98 50.91, 155.64 31.95 M125.46 66.66 C136.13 53.85, 149.34 40.84, 155.64 31.95 M130.45 67.02 C135.37 59.06, 149.11 50.78, 156.04 37.59 M130.45 67.02 C135.16 61.48, 144.66 51.62, 156.04 37.59 M136.09 66.63 C145.99 62.05, 150.87 49.86, 155.78 43.99 M136.09 66.63 C143.2 57.77, 149.68 46.36, 155.78 43.99 M140.43 67.74 C144.06 63.83, 148.42 52.65, 155.52 50.39 M140.43 67.74 C145.35 64.56, 148.78 57.59, 155.52 50.39 M147.38 65.84 C151.84 62.06, 154.63 60.23, 155.25 56.78 M147.38 65.84 C149.48 63.76, 151.9 60.67, 155.25 56.78" stroke="#a5d8ff" stroke-width="0.5" fill="none"></path><path d="M16.6 0 M16.6 0 C45.39 3.87, 68.51 -2.16, 139.4 0 M16.6 0 C52.75 -0.87, 88.31 -0.62, 139.4 0 M139.4 0 C153.71 1.54, 154.57 5.79, 156 16.6 M139.4 0 C153.25 -2.82, 153.21 8.94, 156 16.6 M156 16.6 C154.51 28.73, 153.53 34.35, 156 49.8 M156 16.6 C154.96 30.63, 155.23 42.65, 156 49.8 M156 49.8 C155.97 58.5, 146.99 64.33, 139.4 66.4 M156 49.8 C159.98 60.16, 153.71 64.17, 139.4 66.4 M139.4 66.4 C103.09 68.46, 57.4 68.29, 16.6 66.4 M139.4 66.4 C104.6 66.05, 70.49 65.96, 16.6 66.4 M16.6 66.4 C5.12 69.42, 2.3 61.99, 0 49.8 M16.6 66.4 C1.34 70, 0.57 63.3, 0 49.8 M0 49.8 C-0.04 38.65, 2.32 23.54, 0 16.6 M0 49.8 C-1.67 42.71, -1.61 35.67, 0 16.6 M0 16.6 C-2.81 3.55, 8.89 1.52, 16.6 0 M0 16.6 C-3 4.78, 5.85 0.11, 16.6 0" stroke="#1e1e1e" stroke-width="1" fill="none"></path></g><g transform="translate(206.29003143310547 58.70002746582031) rotate(0 31.309974670410156 12.5)"><text x="31.309974670410156" y="0" font-family="Virgil, Segoe UI Emoji" font-size="20px" fill="#1e1e1e" text-anchor="middle" style="white-space: pre;" direction="ltr" dominant-baseline="text-before-edge">main.js</text></g><g stroke-linecap="round" transform="translate(35.199951171875 241.40000915527344) rotate(0 78 33.20001220703125)"><path d="M6.16 2.71 C6.16 2.71, 6.16 2.71, 6.16 2.71 M6.16 2.71 C6.16 2.71, 6.16 2.71, 6.16 2.71 M1.96 13.63 C4.52 7.33, 11.41 9.08, 13.12 0.8 M1.96 13.63 C7.91 8.58, 9.2 2.37, 13.12 0.8 M1.7 20.03 C2.07 15.06, 10.13 10.36, 18.1 1.16 M1.7 20.03 C6.35 14.95, 11.42 8.74, 18.1 1.16 M1.44 26.43 C6.84 18.16, 19.25 8.87, 23.09 1.52 M1.44 26.43 C7.18 18.59, 14.32 8.66, 23.09 1.52 M1.84 32.07 C9.05 22.12, 19.81 8.65, 28.73 1.13 M1.84 32.07 C13.27 21.31, 23.26 9.3, 28.73 1.13 M1.57 38.47 C11.47 27.89, 18.33 18.8, 33.72 1.49 M1.57 38.47 C13.45 27.32, 22.74 11.83, 33.72 1.49 M1.97 44.11 C12.66 28.01, 28 11.29, 39.36 1.09 M1.97 44.11 C12.71 31.44, 22.05 23.4, 39.36 1.09 M1.71 50.51 C14.66 38.38, 22.6 26.91, 44.35 1.45 M1.71 50.51 C11.65 37.01, 21.32 27.51, 44.35 1.45 M2.76 55.4 C12.22 40.56, 26.05 27.86, 49.34 1.81 M2.76 55.4 C17.29 41.23, 29.6 23.33, 49.34 1.81 M4.46 59.53 C12.17 46, 24.64 34.4, 54.98 1.42 M4.46 59.53 C22.08 39.7, 39.03 19.83, 54.98 1.42 M6.17 63.66 C25.47 39.82, 44.04 18.03, 59.97 1.78 M6.17 63.66 C16.52 48.74, 28.86 38.21, 59.97 1.78 M9.85 65.53 C26.69 43.3, 51.89 21.56, 65.61 1.38 M9.85 65.53 C27.55 43.85, 43.02 26.51, 65.61 1.38 M14.83 65.89 C30.38 47.62, 43.42 25.63, 70.6 1.74 M14.83 65.89 C24.58 51.23, 36.73 40.58, 70.6 1.74 M20.48 65.5 C42.53 44.63, 63.41 24.96, 76.24 1.35 M20.48 65.5 C38.57 43.14, 59.46 23.06, 76.24 1.35 M25.46 65.86 C36.4 51.81, 53.37 34.78, 81.23 1.71 M25.46 65.86 C38.57 53.19, 50.39 37.73, 81.23 1.71 M30.45 66.22 C43.16 49.68, 61.34 26.42, 86.22 2.07 M30.45 66.22 C46.41 48.78, 62.33 34.06, 86.22 2.07 M36.09 65.83 C51.67 45.79, 63.89 33.95, 91.86 1.68 M36.09 65.83 C52.5 48.89, 68.05 30.7, 91.86 1.68 M41.08 66.19 C51.75 48.08, 63.86 38.51, 96.85 2.04 M41.08 66.19 C63.65 41.2, 80.38 20.55, 96.85 2.04 M46.72 65.79 C59.98 50.06, 78.11 28.01, 102.49 1.64 M46.72 65.79 C68.7 40.49, 88.84 15.65, 102.49 1.64 M51.71 66.15 C65.4 54.18, 75.59 37.31, 107.48 2 M51.71 66.15 C70.17 46.34, 85.31 26.37, 107.48 2 M57.35 65.76 C72.05 46.52, 85.55 37.41, 112.46 2.36 M57.35 65.76 C78.28 43.94, 98.3 18.52, 112.46 2.36 M62.34 66.12 C75.77 47.99, 89.12 36.18, 118.11 1.97 M62.34 66.12 C71.89 52.9, 86.18 39.25, 118.11 1.97 M67.33 66.48 C81.57 50.14, 92.83 34.46, 123.09 2.33 M67.33 66.48 C84.38 46.8, 103.19 25.64, 123.09 2.33 M72.97 66.08 C95.57 46.64, 106.57 24.39, 128.74 1.93 M72.97 66.08 C92.63 39.72, 114.17 19.02, 128.74 1.93 M77.96 66.44 C99.74 43.95, 122.7 14.69, 133.72 2.29 M77.96 66.44 C95.88 47.42, 111.59 26.63, 133.72 2.29 M83.6 66.05 C93.34 54.55, 108.18 38.92, 139.37 1.9 M83.6 66.05 C104.11 46.15, 120.77 24.14, 139.37 1.9 M88.59 66.41 C107.15 48.51, 119.89 24.49, 144.35 2.26 M88.59 66.41 C100.63 53.09, 113.42 38.57, 144.35 2.26 M94.23 66.01 C110.56 44.58, 136.58 18.09, 148.68 3.37 M94.23 66.01 C105.96 51.91, 119.59 38.11, 148.68 3.37 M99.22 66.37 C115.32 45.34, 132.19 23.88, 152.36 5.24 M99.22 66.37 C116.45 44.56, 134.76 22.45, 152.36 5.24 M104.2 66.73 C116.86 51.45, 128.33 43.87, 155.38 7.87 M104.2 66.73 C117.31 50.69, 132.79 37.18, 155.38 7.87 M109.85 66.34 C121.92 57.8, 131.15 42.85, 156.43 12.75 M109.85 66.34 C121.17 53.84, 131.46 39.12, 156.43 12.75 M114.83 66.7 C126.79 48.69, 145.16 32.28, 156.17 19.15 M114.83 66.7 C123.85 56.71, 131.79 46.67, 156.17 19.15 M120.48 66.3 C129.38 57.66, 136.08 43.53, 155.9 25.55 M120.48 66.3 C128.2 56.54, 138.79 42.6, 155.9 25.55 M125.46 66.66 C134.95 61.16, 136.65 50.79, 155.64 31.95 M125.46 66.66 C133.36 55.01, 144.3 45.12, 155.64 31.95 M130.45 67.02 C136.56 59.01, 144.55 44.5, 156.04 37.59 M130.45 67.02 C141.59 54.71, 149.83 45.29, 156.04 37.59 M136.09 66.63 C147.79 59.89, 155.02 47.76, 155.78 43.99 M136.09 66.63 C143.93 59.3, 151.15 51.54, 155.78 43.99 M140.43 67.74 C144.89 58.19, 154.02 56.47, 155.52 50.39 M140.43 67.74 C147.28 62.36, 151.7 56.04, 155.52 50.39 M147.38 65.84 C149.86 64.18, 149.89 60.13, 155.25 56.78 M147.38 65.84 C149.31 63.36, 152.65 59.82, 155.25 56.78" stroke="#a5d8ff" stroke-width="0.5" fill="none"></path><path d="M16.6 0 M16.6 0 C62.29 -1.59, 108.71 2.38, 139.4 0 M16.6 0 C50.14 1.44, 79.72 0.8, 139.4 0 M139.4 0 C152.88 -2.45, 153.58 8.49, 156 16.6 M139.4 0 C148.79 -0.47, 152.56 3.9, 156 16.6 M156 16.6 C159 29.3, 153.86 40.07, 156 49.8 M156 16.6 C155.73 27.44, 154.01 39.61, 156 49.8 M156 49.8 C159.46 60.25, 153.28 64.46, 139.4 66.4 M156 49.8 C156.94 64.38, 147.46 69.89, 139.4 66.4 M139.4 66.4 C90.58 71.44, 44.3 68.18, 16.6 66.4 M139.4 66.4 C108.61 66.56, 79.38 65.61, 16.6 66.4 M16.6 66.4 C1.89 69.53, 0.5 62.98, 0 49.8 M16.6 66.4 C8.06 70.66, -1.01 61.53, 0 49.8 M0 49.8 C-3.44 41.74, -0.75 26.28, 0 16.6 M0 49.8 C-1.01 38.14, 2.08 29.23, 0 16.6 M0 16.6 C-2.61 4.88, 5.81 0.1, 16.6 0 M0 16.6 C2.54 6, 1.04 -0.63, 16.6 0" stroke="#1e1e1e" stroke-width="1" fill="none"></path></g><g transform="translate(95.07996368408203 262.1000213623047) rotate(0 18.11998748779297 12.5)"><text x="18.11998748779297" y="0" font-family="Virgil, Segoe UI Emoji" font-size="20px" fill="#1e1e1e" text-anchor="middle" style="white-space: pre;" direction="ltr" dominant-baseline="text-before-edge">a.js</text></g><g stroke-linecap="round" transform="translate(267.5999450683594 241.40000915527344) rotate(0 78 33.20001220703125)"><path d="M6.16 2.71 C6.16 2.71, 6.16 2.71, 6.16 2.71 M6.16 2.71 C6.16 2.71, 6.16 2.71, 6.16 2.71 M1.96 13.63 C7.15 9.61, 9.51 10.93, 13.12 0.8 M1.96 13.63 C4.06 11.14, 8.98 4.73, 13.12 0.8 M1.7 20.03 C5.49 15.37, 14.07 9.8, 18.1 1.16 M1.7 20.03 C7.54 14.05, 14.16 6.79, 18.1 1.16 M1.44 26.43 C8.55 18.82, 16.92 8.75, 23.09 1.52 M1.44 26.43 C10.73 19.21, 16.96 8.76, 23.09 1.52 M1.84 32.07 C14.59 17.94, 21.91 11.94, 28.73 1.13 M1.84 32.07 C10.26 23.79, 17.65 12.35, 28.73 1.13 M1.57 38.47 C13.9 30.4, 18.38 17.9, 33.72 1.49 M1.57 38.47 C14.27 26.48, 25.46 11.31, 33.72 1.49 M1.97 44.11 C10.19 29.44, 22.56 22.11, 39.36 1.09 M1.97 44.11 C9.25 35.24, 20.29 25.69, 39.36 1.09 M1.71 50.51 C11.35 35.68, 29.07 21.32, 44.35 1.45 M1.71 50.51 C9.22 39.5, 18.73 29.31, 44.35 1.45 M2.76 55.4 C14.59 44.77, 27.3 31.22, 49.34 1.81 M2.76 55.4 C19.25 33.69, 38.22 11.65, 49.34 1.81 M4.46 59.53 C18.19 44.03, 25.31 31.91, 54.98 1.42 M4.46 59.53 C20.35 43.36, 30.65 27.38, 54.98 1.42 M6.17 63.66 C18.11 48.44, 31.98 28.49, 59.97 1.78 M6.17 63.66 C19.09 49.83, 30.51 35.81, 59.97 1.78 M9.85 65.53 C28.2 43.18, 47.53 22.96, 65.61 1.38 M9.85 65.53 C21.47 52.39, 33.2 39.05, 65.61 1.38 M14.83 65.89 C29.37 49.43, 52.5 25.46, 70.6 1.74 M14.83 65.89 C29.96 47.58, 41.69 33.58, 70.6 1.74 M20.48 65.5 C38.89 42.65, 56.11 21.44, 76.24 1.35 M20.48 65.5 C31.61 47.71, 47.63 32.28, 76.24 1.35 M25.46 65.86 C38.2 45.62, 56.78 28.65, 81.23 1.71 M25.46 65.86 C45.08 45.14, 64.69 19.64, 81.23 1.71 M30.45 66.22 C51.68 38.17, 75.17 16.61, 86.22 2.07 M30.45 66.22 C45.02 47.16, 60.26 28.76, 86.22 2.07 M36.09 65.83 C48.36 49.05, 62.85 37.84, 91.86 1.68 M36.09 65.83 C52.13 46.07, 69.94 23.17, 91.86 1.68 M41.08 66.19 C56.42 51.92, 63.09 42.82, 96.85 2.04 M41.08 66.19 C52.76 53.36, 65.78 39.34, 96.85 2.04 M46.72 65.79 C68.36 45.03, 84.69 24.66, 102.49 1.64 M46.72 65.79 C58.23 50.8, 71.09 36.63, 102.49 1.64 M51.71 66.15 C71.79 44.85, 88.21 24.69, 107.48 2 M51.71 66.15 C69.29 48.01, 85.64 27.13, 107.48 2 M57.35 65.76 C71.85 48.39, 77.2 36.5, 112.46 2.36 M57.35 65.76 C76.48 41.69, 95.75 20.64, 112.46 2.36 M62.34 66.12 C71.22 54.8, 87.25 35.49, 118.11 1.97 M62.34 66.12 C79.01 43.75, 98.84 23.46, 118.11 1.97 M67.33 66.48 C82.31 51.41, 94.8 33.05, 123.09 2.33 M67.33 66.48 C88.47 42.68, 108.52 21.64, 123.09 2.33 M72.97 66.08 C96.97 41.06, 118.05 16.58, 128.74 1.93 M72.97 66.08 C88.25 51.35, 98.5 35.75, 128.74 1.93 M77.96 66.44 C98.53 43.4, 121.47 21.26, 133.72 2.29 M77.96 66.44 C97.36 42.37, 117.54 17.45, 133.72 2.29 M83.6 66.05 C106 40.19, 125.92 21.51, 139.37 1.9 M83.6 66.05 C103.57 41.12, 125.3 20.09, 139.37 1.9 M88.59 66.41 C106.33 44.37, 130.13 21.73, 144.35 2.26 M88.59 66.41 C105.22 48.12, 120.68 27.23, 144.35 2.26 M94.23 66.01 C108.77 46.96, 128.06 23.68, 148.68 3.37 M94.23 66.01 C111.84 45.66, 128.28 25.46, 148.68 3.37 M99.22 66.37 C118.26 46.48, 135.2 26.29, 152.36 5.24 M99.22 66.37 C114.19 49.79, 131.04 31.76, 152.36 5.24 M104.2 66.73 C112.33 53.53, 124.45 40.6, 155.38 7.87 M104.2 66.73 C116.16 50.94, 131.53 34.15, 155.38 7.87 M109.85 66.34 C122.9 51.35, 139.71 30.95, 156.43 12.75 M109.85 66.34 C126.77 47.27, 140.08 29.39, 156.43 12.75 M114.83 66.7 C120.94 53.29, 133.69 43.56, 156.17 19.15 M114.83 66.7 C127.11 50.12, 138.87 37.12, 156.17 19.15 M120.48 66.3 C131.28 55.65, 144.69 37.65, 155.9 25.55 M120.48 66.3 C133 51.55, 147.57 36.7, 155.9 25.55 M125.46 66.66 C136.12 57.95, 146.64 41.68, 155.64 31.95 M125.46 66.66 C131.86 61.29, 138.52 51.14, 155.64 31.95 M130.45 67.02 C143.1 59.86, 147.34 50.36, 156.04 37.59 M130.45 67.02 C138.94 59.17, 143.58 53.75, 156.04 37.59 M136.09 66.63 C143.62 55.09, 145.78 52.76, 155.78 43.99 M136.09 66.63 C142.41 59.1, 145.38 53.55, 155.78 43.99 M140.43 67.74 C146.76 63.84, 145.39 62.37, 155.52 50.39 M140.43 67.74 C145.38 62.79, 151.93 55.46, 155.52 50.39 M147.38 65.84 C151.55 61.98, 153.79 57.87, 155.25 56.78 M147.38 65.84 C151.24 61.78, 152.34 59, 155.25 56.78" stroke="#a5d8ff" stroke-width="0.5" fill="none"></path><path d="M16.6 0 M16.6 0 C41.2 -0.46, 67.91 2.93, 139.4 0 M16.6 0 C59.38 -1.38, 98.52 1.32, 139.4 0 M139.4 0 C149.01 -0.41, 153.01 4.11, 156 16.6 M139.4 0 C154.35 -2.76, 156.29 9.44, 156 16.6 M156 16.6 C158.2 24.98, 156.68 36.38, 156 49.8 M156 16.6 C157.15 24.29, 156.83 31.62, 156 49.8 M156 49.8 C156.82 63.92, 147.85 69.43, 139.4 66.4 M156 49.8 C160.22 57.06, 154.48 65.57, 139.4 66.4 M139.4 66.4 C91.63 66.82, 45.73 65.76, 16.6 66.4 M139.4 66.4 C91.46 68.65, 47.42 68.15, 16.6 66.4 M16.6 66.4 C7.73 70.11, -0.88 61.44, 0 49.8 M16.6 66.4 C6.27 69.77, -3.09 57.48, 0 49.8 M0 49.8 C0.89 35.41, 1.83 23.04, 0 16.6 M0 49.8 C-1.86 41.16, -0.42 33.23, 0 16.6 M0 16.6 C2.21 5.94, 1.63 -0.55, 16.6 0 M0 16.6 C3.48 2.64, 7.63 2.6, 16.6 0" stroke="#1e1e1e" stroke-width="1" fill="none"></path></g><g transform="translate(329.06996154785156 262.1000213623047) rotate(0 16.529983520507812 12.5)"><text x="16.529983520507812" y="0" font-family="Virgil, Segoe UI Emoji" font-size="20px" fill="#1e1e1e" text-anchor="middle" style="white-space: pre;" direction="ltr" dominant-baseline="text-before-edge">b.js</text></g><g stroke-linecap="round"><g transform="translate(229.20004272460938 115.60005187988281) rotate(0 -48.97257870681585 56.1068678510934)"><path d="M2.7 0.18 C-9.06 6.8, -50.97 20.65, -67.86 39.69 C-84.76 58.73, -93.19 102.41, -98.68 114.4 M0.71 -2.19 C-10.42 4.88, -45.8 24.42, -62.69 43.15 C-79.58 61.88, -94.17 98.36, -100.64 110.18" stroke="#1e1e1e" stroke-width="1" fill="none"></path></g><g transform="translate(229.20004272460938 115.60005187988281) rotate(0 -48.97257870681585 56.1068678510934)"><path d="M-97.27 77.11 C-99.2 91.78, -96.55 100.56, -101.18 106.91 M-98.14 82.06 C-96.47 92.29, -101.27 102.6, -102.47 111.7" stroke="#1e1e1e" stroke-width="1" fill="none"></path></g><g transform="translate(229.20004272460938 115.60005187988281) rotate(0 -48.97257870681585 56.1068678510934)"><path d="M-78.82 86.09 C-88.03 97.57, -92.67 102.8, -101.18 106.91 M-79.69 91.04 C-85.43 98.06, -97.5 104.82, -102.47 111.7" stroke="#1e1e1e" stroke-width="1" fill="none"></path></g></g><mask></mask><g stroke-linecap="round"><g transform="translate(239.45667533753436 116.75723164590067) rotate(0 49.649708409234876 55.79051657661799)"><path d="M-2.26 -0.31 C8.18 6.73, 48.94 23.75, 65.32 42.4 C81.7 61.06, 90.89 99.58, 96.02 111.62 M1.71 -2.95 C11.5 3.33, 46.29 19.12, 62.93 38.7 C79.57 58.28, 96.14 102.64, 101.56 114.53" stroke="#1e1e1e" stroke-width="1" fill="none"></path></g><g transform="translate(239.45667533753436 116.75723164590067) rotate(0 49.649708409234876 55.79051657661799)"><path d="M80.68 92.17 C92.68 98.2, 96.81 107.04, 105.33 117.7 M82.93 92.71 C87.16 99.42, 95.02 110.78, 101.5 113.15" stroke="#1e1e1e" stroke-width="1" fill="none"></path></g><g transform="translate(239.45667533753436 116.75723164590067) rotate(0 49.649708409234876 55.79051657661799)"><path d="M99.57 84.17 C104.1 93.07, 100.74 105.08, 105.33 117.7 M101.83 84.71 C98.68 94.85, 99.2 109.31, 101.5 113.15" stroke="#1e1e1e" stroke-width="1" fill="none"></path></g></g><mask></mask></svg>