<svg version="1.1" xmlns="http://www.w3.org/2000/svg" viewBox="0 0 523.2000427246094 357.60006713867193" width="523.2000427246094" height="357.60006713867193">
  <!-- svg-source:excalidraw -->
  
  <defs>
    <style class="style-fonts">
      @font-face {
        font-family: "Virgil";
        src: url("https://excalidraw.com/Virgil.woff2");
      }
      @font-face {
        font-family: "Cascadia";
        src: url("https://excalidraw.com/Cascadia.woff2");
      }
    </style>
    
  </defs>
  <rect x="0" y="0" width="523.2000427246094" height="357.60006713867193" fill="#ffffff"></rect><g stroke-linecap="round" transform="translate(10 10.000076293945312) rotate(0 155.60000610351562 167.59998321533203)"><path d="M7.86 8.16 C7.86 8.16, 7.86 8.16, 7.86 8.16 M7.86 8.16 C7.86 8.16, 7.86 8.16, 7.86 8.16 M2.35 20.59 C2.04 16.04, 8.18 14.09, 18.1 2.48 M2.35 20.59 C8.69 16.6, 14.35 10.02, 18.1 2.48 M2.75 26.24 C12.16 15.94, 19.47 7.17, 24.4 1.33 M2.75 26.24 C10.07 17.68, 15.22 12.14, 24.4 1.33 M2.48 32.64 C11.02 25.08, 18.7 17.44, 30.7 0.18 M2.48 32.64 C11.54 20.04, 24.24 10.69, 30.7 0.18 M2.88 38.28 C13.72 31.93, 18.16 19, 34.37 2.05 M2.88 38.28 C13.39 24.04, 27.87 9.85, 34.37 2.05 M2.62 44.68 C15.85 33, 19.1 22.83, 39.36 2.41 M2.62 44.68 C12.94 32.09, 21.6 24.1, 39.36 2.41 M2.36 51.07 C19.92 35.47, 32.07 15.04, 45 2.02 M2.36 51.07 C15.08 40.16, 24.19 25.21, 45 2.02 M2.75 56.72 C17.32 36.25, 35.31 24.03, 49.99 2.38 M2.75 56.72 C19.91 37.06, 36.75 17.39, 49.99 2.38 M2.49 63.11 C18.43 47.26, 31.02 36.24, 55.63 1.98 M2.49 63.11 C20.56 38.82, 41.84 16.79, 55.63 1.98 M2.88 68.76 C23.01 43.89, 35.38 30.28, 60.62 2.34 M2.88 68.76 C23.9 46, 43.62 21.11, 60.62 2.34 M2.62 75.16 C16.6 55.28, 34.54 39.91, 66.26 1.95 M2.62 75.16 C21.03 50.56, 40.63 29.53, 66.26 1.95 M2.36 81.55 C20.97 60.36, 35.02 50.26, 71.25 2.31 M2.36 81.55 C18.67 65.33, 32.76 50.14, 71.25 2.31 M2.76 87.2 C25.03 63.03, 48.42 33, 76.89 1.91 M2.76 87.2 C30.57 57.35, 55.57 26.07, 76.89 1.91 M2.49 93.59 C25.4 64.95, 47.23 37.17, 81.88 2.27 M2.49 93.59 C19.74 75.61, 38.51 51.59, 81.88 2.27 M2.23 99.99 C38.61 58.01, 72.06 22.98, 87.52 1.88 M2.23 99.99 C24.86 76.18, 42.93 54.1, 87.52 1.88 M2.63 105.64 C21.14 82.08, 41.36 58.28, 92.51 2.24 M2.63 105.64 C32.95 70.53, 64.58 37.49, 92.51 2.24 M2.37 112.03 C29.61 80.14, 50.73 47.35, 98.15 1.85 M2.37 112.03 C41.51 68.11, 80.16 21.94, 98.15 1.85 M2.76 117.68 C36.63 84.91, 64.9 47.16, 103.14 2.21 M2.76 117.68 C26.15 86.54, 54.43 56.88, 103.14 2.21 M2.5 124.07 C43.43 77.61, 83.14 34.73, 108.78 1.81 M2.5 124.07 C25.41 96.2, 49.08 68.07, 108.78 1.81 M2.24 130.47 C24.39 101.24, 47.49 74.38, 113.77 2.17 M2.24 130.47 C40.94 86.34, 82.28 43.06, 113.77 2.17 M2.63 136.11 C50.19 81.33, 97.08 29.41, 119.41 1.78 M2.63 136.11 C30.62 103.34, 57.5 74.29, 119.41 1.78 M2.37 142.51 C40.22 89.97, 88.55 40.78, 124.4 2.14 M2.37 142.51 C39.19 99.46, 79.09 57.39, 124.4 2.14 M2.11 148.91 C49.09 95.19, 97.26 46.12, 130.04 1.74 M2.11 148.91 C44.91 98.54, 89.81 49.91, 130.04 1.74 M2.5 154.55 C30.82 116.17, 66.39 86.27, 135.03 2.1 M2.5 154.55 C42.45 114.9, 76.76 72.54, 135.03 2.1 M2.24 160.95 C46.45 111.4, 84.95 57.46, 140.67 1.71 M2.24 160.95 C28.78 129.25, 58.57 97.62, 140.67 1.71 M2.64 166.59 C44.69 116.64, 82.86 73.5, 145.66 2.07 M2.64 166.59 C58.84 102.38, 116.83 37.46, 145.66 2.07 M2.38 172.99 C61.8 109.17, 118.19 38.44, 150.65 2.43 M2.38 172.99 C32.96 136.99, 64.2 102.14, 150.65 2.43 M2.11 179.39 C45.91 131.2, 93.55 75.6, 156.29 2.03 M2.11 179.39 C35.28 144.39, 64.43 108.16, 156.29 2.03 M2.51 185.03 C39.17 148.17, 77.07 105, 161.28 2.39 M2.51 185.03 C51.58 132.84, 97.02 82.74, 161.28 2.39 M2.25 191.43 C47.31 133.93, 101.86 73.86, 166.92 2 M2.25 191.43 C40.38 147.77, 76.33 106.17, 166.92 2 M2.64 197.07 C50.31 140.72, 92.69 92.53, 171.91 2.36 M2.64 197.07 C66.82 127.16, 129.42 54.66, 171.91 2.36 M2.38 203.47 C67.5 128.94, 128.63 55.65, 177.55 1.96 M2.38 203.47 C36.97 158.37, 74.85 116.32, 177.55 1.96 M2.12 209.87 C55.85 147.42, 114 84.41, 182.54 2.32 M2.12 209.87 C51.01 152.4, 101.02 94.5, 182.54 2.32 M2.51 215.51 C71.25 134.65, 142.03 57.07, 188.18 1.93 M2.51 215.51 C55.92 157.69, 110.07 95.04, 188.18 1.93 M2.25 221.91 C62.63 142.91, 128.79 67.71, 193.17 2.29 M2.25 221.91 C47.63 167.15, 95.13 112.2, 193.17 2.29 M1.99 228.31 C42.82 182.53, 81.42 133.25, 198.81 1.9 M1.99 228.31 C46.38 179.17, 90.79 128.93, 198.81 1.9 M2.39 233.95 C65.55 158.61, 128.41 85.46, 203.8 2.26 M2.39 233.95 C47.53 184.25, 90.31 134.93, 203.8 2.26 M2.12 240.35 C54.45 184.53, 101.84 126.96, 209.44 1.86 M2.12 240.35 C68.8 161.26, 138.54 83.24, 209.44 1.86 M2.52 245.99 C84.56 157.52, 159.5 68.96, 214.43 2.22 M2.52 245.99 C65.06 170.3, 126.07 100.12, 214.43 2.22 M2.26 252.39 C90.28 157.47, 173.06 64.04, 220.07 1.83 M2.26 252.39 C80.95 159.68, 164.63 66.96, 220.07 1.83 M2 258.79 C87.06 162.81, 171.22 68.28, 225.06 2.19 M2 258.79 C76.69 172.6, 149.85 86.57, 225.06 2.19 M2.39 264.43 C56.22 202.05, 113.28 140.18, 230.7 1.79 M2.39 264.43 C69.57 183.67, 137.7 107.94, 230.7 1.79 M2.13 270.83 C62.44 201.94, 121.62 129.71, 235.69 2.15 M2.13 270.83 C81.8 176.61, 163.58 81.78, 235.69 2.15 M1.87 277.23 C87.64 173.3, 174.85 69.2, 241.33 1.76 M1.87 277.23 C61.07 209.55, 120.84 143.08, 241.33 1.76 M2.26 282.87 C55.12 221.69, 103.86 164.33, 246.32 2.12 M2.26 282.87 C79.86 196.74, 153.52 113.06, 246.32 2.12 M2 289.27 C61.73 221.18, 123.79 146.71, 251.96 1.72 M2 289.27 C92.97 182.75, 183.82 78.51, 251.96 1.72 M2.4 294.91 C76.88 207.86, 155.91 123.41, 256.95 2.08 M2.4 294.91 C83.02 204.38, 164.89 111.48, 256.95 2.08 M0.17 303.57 C71.67 219.6, 141.76 137.12, 262.59 1.69 M0.17 303.57 C54.57 236.37, 109.75 171.83, 262.59 1.69 M1.22 308.46 C80.01 226.25, 155.16 137.39, 267.58 2.05 M1.22 308.46 C66.12 236.79, 128.62 166.89, 267.58 2.05 M1.61 314.1 C98.01 201.74, 193.43 88.46, 272.56 2.41 M1.61 314.1 C91.31 205.97, 183.39 101.42, 272.56 2.41 M3.32 318.24 C102.66 200.46, 207.01 86.87, 279.52 0.5 M3.32 318.24 C82.96 226.48, 165.09 133.64, 279.52 0.5 M5.68 321.62 C106.67 207.22, 204.13 94.74, 284.51 0.86 M5.68 321.62 C94.09 218.83, 181.07 119.04, 284.51 0.86 M7.39 325.75 C80.69 240.62, 149.74 160.46, 288.84 1.98 M7.39 325.75 C73.79 248.52, 142.38 169.8, 288.84 1.98 M9.75 329.13 C68.88 261.26, 128.21 192.06, 293.82 2.34 M9.75 329.13 C82.39 243.46, 155.91 159.09, 293.82 2.34 M13.42 331 C98.93 234.78, 181.92 139.29, 297.5 4.21 M13.42 331 C74.6 258.77, 139 186.89, 297.5 4.21 M17.1 332.87 C87.57 252.55, 158.04 174.51, 300.52 6.83 M17.1 332.87 C120.82 212.73, 224.35 92.93, 300.52 6.83 M20.12 335.49 C118.01 222.84, 214.46 109.94, 304.19 8.7 M20.12 335.49 C102.02 244.03, 181.76 153.43, 304.19 8.7 M25.11 335.85 C88.88 258.89, 157.35 186.8, 306.55 12.08 M25.11 335.85 C128.06 213.92, 232.02 94.18, 306.55 12.08 M30.09 336.21 C112.84 241.08, 196.93 142.84, 308.26 16.22 M30.09 336.21 C106.11 252.97, 179.89 169.87, 308.26 16.22 M34.42 337.33 C128.36 227.41, 225.24 117.21, 310.62 19.59 M34.42 337.33 C106.74 255.31, 179.38 174.1, 310.62 19.59 M39.41 337.69 C137.89 224.82, 239.17 108.69, 311.68 24.48 M39.41 337.69 C124.01 238.05, 211.49 137.06, 311.68 24.48 M45.05 337.29 C99.88 272.65, 156.71 206.4, 312.07 30.13 M45.05 337.29 C140.69 225.9, 237.08 114.58, 312.07 30.13 M50.04 337.65 C152.91 220.37, 255.36 101.83, 313.78 34.26 M50.04 337.65 C100.97 277.3, 156.08 215.65, 313.78 34.26 M55.68 337.26 C124.85 259.42, 187.16 183.68, 313.51 40.66 M55.68 337.26 C121.69 259.22, 191.15 180.29, 313.51 40.66 M60.67 337.62 C134.11 249.97, 213.21 158.46, 313.91 46.3 M60.67 337.62 C153.88 230.78, 244.54 124.89, 313.91 46.3 M66.31 337.22 C148.59 244.62, 232.5 144.87, 313.65 52.7 M66.31 337.22 C146.29 245.82, 226.7 153.22, 313.65 52.7 M71.3 337.58 C145.37 253.4, 218.96 163.74, 314.04 58.34 M71.3 337.58 C131 268.96, 192.89 200.47, 314.04 58.34 M76.94 337.19 C152.91 248.12, 233.6 156.3, 313.78 64.74 M76.94 337.19 C150.87 251.31, 228.66 163.32, 313.78 64.74 M81.93 337.55 C154.95 256.66, 223.72 174.06, 313.52 71.14 M81.93 337.55 C132.88 275.53, 185.19 214.6, 313.52 71.14 M87.57 337.15 C164.82 247.07, 247.1 155.49, 313.91 76.78 M87.57 337.15 C136.33 283.65, 182.16 231.17, 313.91 76.78 M92.56 337.51 C140.92 281.05, 187.6 225.98, 313.65 83.18 M92.56 337.51 C145.61 275.24, 200.93 213.02, 313.65 83.18 M98.2 337.12 C162.97 260.2, 230.67 184.84, 314.05 88.82 M98.2 337.12 C174.72 246.5, 254.1 157.53, 314.05 88.82 M103.19 337.48 C165.93 268.19, 229.52 196.24, 313.79 95.22 M103.19 337.48 C175.94 251.89, 253.52 163.71, 313.79 95.22 M108.83 337.09 C185.45 249.43, 260.27 167.78, 313.52 101.62 M108.83 337.09 C180.49 255.72, 250.21 174.35, 313.52 101.62 M113.82 337.45 C157.72 288.28, 200.62 236.07, 313.92 107.26 M113.82 337.45 C162.55 280.9, 212.12 225.13, 313.92 107.26 M119.46 337.05 C178.63 276.39, 234.91 209.21, 313.66 113.66 M119.46 337.05 C189.67 257.46, 255.96 180.06, 313.66 113.66 M124.45 337.41 C200.87 251.3, 275.31 164.49, 314.05 119.3 M124.45 337.41 C173.57 281.73, 220.66 226.77, 314.05 119.3 M130.09 337.02 C183.02 268.97, 237.62 210.8, 313.79 125.7 M130.09 337.02 C188.75 270.18, 250.98 199.07, 313.79 125.7 M135.08 337.38 C172.53 288.81, 209.96 244.52, 313.53 132.1 M135.08 337.38 C195.06 267.33, 254.98 199.55, 313.53 132.1 M140.72 336.98 C202.95 258.72, 271.27 188.15, 313.92 137.74 M140.72 336.98 C187.29 281.61, 234.6 223.08, 313.92 137.74 M145.71 337.34 C188.44 288.55, 230.02 238.24, 313.66 144.14 M145.71 337.34 C206.1 266.16, 270.42 193.67, 313.66 144.14 M151.35 336.95 C181.59 299.36, 216.65 258.38, 314.06 149.78 M151.35 336.95 C205.93 271.16, 267.32 203.89, 314.06 149.78 M156.34 337.31 C203.78 288.94, 246.99 240.34, 313.8 156.18 M156.34 337.31 C191.9 297.7, 231.53 252.22, 313.8 156.18 M161.33 337.67 C191.59 299.89, 226.63 257.71, 313.53 162.58 M161.33 337.67 C218.77 271.19, 275.93 207.21, 313.53 162.58 M166.97 337.27 C217.26 276.08, 271.6 215.9, 313.93 168.22 M166.97 337.27 C206.66 290.6, 248.63 242.19, 313.93 168.22 M171.96 337.63 C218.56 283.08, 272.77 225.93, 313.67 174.62 M171.96 337.63 C207.14 294.38, 247.67 250.31, 313.67 174.62 M177.6 337.24 C215.01 302.58, 244.68 261.22, 314.06 180.26 M177.6 337.24 C214.39 294.57, 252.27 249.23, 314.06 180.26 M182.59 337.6 C212.95 300.07, 249.76 254.91, 313.8 186.66 M182.59 337.6 C219.63 297.06, 252.25 256.75, 313.8 186.66 M188.23 337.2 C233.98 292.94, 272.86 249.82, 313.54 193.05 M188.23 337.2 C224.54 296.53, 259.84 254.38, 313.54 193.05 M193.22 337.56 C230.46 290.19, 269.67 241.25, 313.93 198.7 M193.22 337.56 C232.27 294.2, 271.14 248.81, 313.93 198.7 M198.86 337.17 C232.23 299.4, 268.79 256.77, 313.67 205.1 M198.86 337.17 C225.28 309.3, 251.11 278.09, 313.67 205.1 M203.85 337.53 C235.24 302.78, 269.64 258.56, 314.07 210.74 M203.85 337.53 C226.87 311.19, 255.01 278.99, 314.07 210.74 M209.49 337.14 C250.62 294.98, 285.09 254.46, 313.81 217.14 M209.49 337.14 C228.16 314.3, 250.51 289.68, 313.81 217.14 M214.48 337.5 C252.1 288.82, 294.71 249.49, 313.54 223.53 M214.48 337.5 C253.01 293.89, 289.67 251.16, 313.54 223.53 M220.12 337.1 C248.65 307.12, 272.34 273.8, 313.94 229.18 M220.12 337.1 C243.49 310.94, 264.47 285.4, 313.94 229.18 M225.11 337.46 C256.08 303.98, 284.05 268.4, 313.68 235.57 M225.11 337.46 C257.7 300.33, 290.18 265.7, 313.68 235.57 M230.75 337.07 C253.14 312.81, 265.39 289.03, 314.07 241.22 M230.75 337.07 C265.48 299.82, 297.77 258.75, 314.07 241.22 M235.74 337.43 C253.97 316.65, 276.42 290, 313.81 247.62 M235.74 337.43 C262.27 304.52, 289.75 274.36, 313.81 247.62 M241.38 337.03 C268.24 312.61, 286.32 280.64, 313.55 254.01 M241.38 337.03 C266.31 309.17, 293.71 279.29, 313.55 254.01 M246.37 337.39 C267.57 311.61, 293.17 288.47, 313.94 259.66 M246.37 337.39 C271.42 308.31, 297.13 279.02, 313.94 259.66 M252.01 337 C272.41 316.22, 285.98 289.21, 313.68 266.05 M252.01 337 C271.42 312.78, 291.3 292.73, 313.68 266.05 M257 337.36 C273.89 317.82, 293.1 297.83, 314.08 271.7 M257 337.36 C278.55 311.44, 299.33 286.46, 314.08 271.7 M262.64 336.96 C273 327.11, 284.83 311.09, 313.82 278.1 M262.64 336.96 C273.72 323.58, 287.44 308.4, 313.82 278.1 M267.63 337.32 C283.26 315.64, 305.24 292.77, 313.55 284.49 M267.63 337.32 C276.82 325.69, 286.34 317.1, 313.55 284.49 M272.62 337.68 C288.61 320.78, 297.62 307.5, 313.95 290.14 M272.62 337.68 C290.85 318.32, 306.29 302.83, 313.95 290.14 M279.57 335.78 C286.27 330.51, 291.63 321.88, 313.69 296.53 M279.57 335.78 C286.65 329.29, 296.04 321.1, 313.69 296.53 M285.87 334.63 C294.08 328.11, 296.71 321.94, 312.11 304.44 M285.87 334.63 C293.81 328, 300.27 317.64, 312.11 304.44 M291.51 334.23 C295.29 326.36, 300.45 325.57, 311.2 311.59 M291.51 334.23 C294.78 329.46, 299.47 323.22, 311.2 311.59 M295.84 335.35 C300.99 331.58, 305.18 322.77, 310.28 318.75 M295.84 335.35 C300.31 331.03, 305.22 326.57, 310.28 318.75" stroke="#a5d8ff" stroke-width="0.5" fill="none"></path><path d="M32 0 M32 0 C116.77 0.63, 200.53 -4.73, 279.2 0 M32 0 C87.08 -2.61, 140.39 -3.72, 279.2 0 M279.2 0 C299.2 1.68, 309.13 7.4, 311.2 32 M279.2 0 C297.86 4.29, 311.36 6.75, 311.2 32 M311.2 32 C309.77 104.36, 305.79 168.92, 311.2 303.2 M311.2 32 C308.8 125.27, 309.51 219.14, 311.2 303.2 M311.2 303.2 C310.95 326.8, 296.71 331.73, 279.2 335.2 M311.2 303.2 C311.28 326.51, 300.63 337.69, 279.2 335.2 M279.2 335.2 C185.29 333.81, 95.85 337.1, 32 335.2 M279.2 335.2 C230.55 336.11, 180.91 336.47, 32 335.2 M32 335.2 C9.88 338.43, -1.68 324.12, 0 303.2 M32 335.2 C15.11 331.54, 0.01 322.87, 0 303.2 M0 303.2 C0.8 249.68, -3.52 190.54, 0 32 M0 303.2 C-2.05 224.29, -0.81 142.95, 0 32 M0 32 C1.51 6.82, 12.99 -1.68, 32 0 M0 32 C0.99 15.15, 8.31 0.82, 32 0" stroke="#1e1e1e" stroke-width="1" fill="none"></path></g><g stroke-linecap="round" transform="translate(121.20004272460938 34.79997253417969) rotate(0 46.399993896484375 17.5)"><path d="M2.33 2.02 C2.33 2.02, 2.33 2.02, 2.33 2.02 M2.33 2.02 C2.33 2.02, 2.33 2.02, 2.33 2.02 M0.76 9.93 C1.38 6.2, 8.77 4.86, 9.28 0.12 M0.76 9.93 C4 6.22, 7.74 2.45, 9.28 0.12 M1.15 15.57 C4.25 13.54, 7.35 2.68, 14.27 0.48 M1.15 15.57 C3.74 8.97, 7.87 5.36, 14.27 0.48 M1.54 21.22 C2.95 11.87, 10.27 12.69, 19.91 0.09 M1.54 21.22 C5.01 14.86, 9.43 12, 19.91 0.09 M1.28 27.62 C10.64 23.85, 12.32 14.02, 24.9 0.45 M1.28 27.62 C11.25 19.09, 17.99 8.22, 24.9 0.45 M2.99 31.75 C10.31 21.41, 16.74 11.37, 29.89 0.81 M2.99 31.75 C11.83 23.68, 18.12 11.78, 29.89 0.81 M5.35 35.13 C14.71 24.82, 20.86 20.01, 35.53 0.41 M5.35 35.13 C14.55 21.13, 27.17 7.6, 35.53 0.41 M11 34.73 C19.75 25.28, 27.99 15.62, 40.52 0.77 M11 34.73 C16.57 24.45, 25.03 15.62, 40.52 0.77 M15.98 35.09 C25.5 27.8, 33.94 15.15, 46.16 0.38 M15.98 35.09 C21.25 27.83, 26.84 21.84, 46.16 0.38 M21.63 34.7 C26.67 28.15, 39.33 21.14, 51.15 0.74 M21.63 34.7 C33.27 21.99, 41.9 10, 51.15 0.74 M26.61 35.06 C35.72 28.57, 46.48 16.67, 56.79 0.34 M26.61 35.06 C35.53 27.52, 39.57 19.05, 56.79 0.34 M31.6 35.42 C42.07 23.44, 51.29 14.81, 61.78 0.7 M31.6 35.42 C43.35 24.23, 51.01 10.91, 61.78 0.7 M37.24 35.02 C44.55 23.23, 51.47 18.26, 66.77 1.06 M37.24 35.02 C47.78 23.3, 53.69 13.21, 66.77 1.06 M42.23 35.38 C56.58 18.16, 60.96 12.95, 72.41 0.67 M42.23 35.38 C49.88 27.59, 60.2 18.47, 72.41 0.67 M47.87 34.99 C59.54 26.19, 65.51 8.53, 77.4 1.03 M47.87 34.99 C57.16 25.42, 67.89 11.74, 77.4 1.03 M52.86 35.35 C55.78 26.15, 67.96 16.12, 83.04 0.63 M52.86 35.35 C62.74 24.63, 69.45 14.32, 83.04 0.63 M58.5 34.96 C69.87 26.19, 76.14 18.37, 88.03 0.99 M58.5 34.96 C66.63 26.16, 76.24 16.16, 88.03 0.99 M63.49 35.32 C73.6 28.26, 73.75 19.38, 91.04 3.62 M63.49 35.32 C70.87 26.51, 76.48 22.21, 91.04 3.62 M68.48 35.68 C78.8 30, 78.71 21.21, 94.06 6.24 M68.48 35.68 C80.28 26.37, 87.51 14.28, 94.06 6.24 M74.12 35.28 C82.05 27.92, 85.53 23.57, 93.8 12.64 M74.12 35.28 C78.15 28.32, 83.99 21.82, 93.8 12.64 M79.11 35.64 C80.44 30.45, 86.04 22.49, 94.2 18.28 M79.11 35.64 C83.94 32.44, 88.39 25.17, 94.2 18.28 M84.75 35.25 C90.02 31.07, 93.16 28.14, 93.94 24.68 M84.75 35.25 C86.06 33.1, 90.1 31.34, 93.94 24.68" stroke="#a5d8ff" stroke-width="0.5" fill="none"></path><path d="M8.75 0 M8.75 0 C34.88 1.77, 60.64 3.19, 84.05 0 M8.75 0 C31.67 0.2, 53.55 1.28, 84.05 0 M84.05 0 C88.03 2.59, 91.42 0.64, 92.8 8.75 M84.05 0 C86.54 -0.96, 91.8 3.89, 92.8 8.75 M92.8 8.75 C90.22 12.62, 89.5 18.32, 92.8 26.25 M92.8 8.75 C92.2 13.4, 93.56 21.24, 92.8 26.25 M92.8 26.25 C89.8 32.44, 90.76 38.51, 84.05 35 M92.8 26.25 C93.59 31.44, 88.17 35.46, 84.05 35 M84.05 35 C60.05 37.77, 36.66 32.9, 8.75 35 M84.05 35 C63.39 36.11, 44.74 37.61, 8.75 35 M8.75 35 C5.81 38.45, -3.15 29.24, 0 26.25 M8.75 35 C-1.68 39.3, -4.51 35.06, 0 26.25 M0 26.25 C-1.82 18.01, -0.34 13.36, 0 8.75 M0 26.25 C1.79 20.54, -0.71 17.43, 0 8.75 M0 8.75 C2.51 3.08, 2.73 0.69, 8.75 0 M0 8.75 C3.81 -0.08, 6.92 1.97, 8.75 0" stroke="#1e1e1e" stroke-width="1" fill="none"></path></g><g transform="translate(136.2900619506836 39.79997253417969) rotate(0 31.309974670410156 12.5)"><text x="31.309974670410156" y="0" font-family="Virgil, Segoe UI Emoji" font-size="20px" fill="#1e1e1e" text-anchor="middle" style="white-space: pre;" direction="ltr" dominant-baseline="text-before-edge">main.js</text></g><g stroke-linecap="round"><g transform="translate(180.90654081231378 76.39997863769531) rotate(0 27.086922496220723 81.72336474746466)"><path d="M-0.77 0.17 C8.51 27.43, 45.7 135.14, 54.94 161.87 M4.01 -2.21 C12.96 25.72, 44.48 138.1, 52.59 165.65" stroke="#1e1e1e" stroke-width="1" fill="none"></path></g><g transform="translate(180.90654081231378 76.39997863769531) rotate(0 27.086922496220723 81.72336474746466)"><path d="M35.2 141.08 C39.89 147.49, 42.85 157.71, 53.08 162.27 M33.98 140.54 C40.52 148.14, 44 154.3, 51.59 163.86" stroke="#1e1e1e" stroke-width="1" fill="none"></path></g><g transform="translate(180.90654081231378 76.39997863769531) rotate(0 27.086922496220723 81.72336474746466)"><path d="M54.92 135.42 C54.13 143.27, 51.68 155.05, 53.08 162.27 M53.7 134.88 C55.53 143.58, 54.36 151.08, 51.59 163.86" stroke="#1e1e1e" stroke-width="1" fill="none"></path></g></g><mask></mask><g stroke-linecap="round" transform="translate(193.20004272460938 250) rotate(0 42.399993896484375 30)"><path d="M3.99 3.47 C3.99 3.47, 3.99 3.47, 3.99 3.47 M3.99 3.47 C3.99 3.47, 3.99 3.47, 3.99 3.47 M1.11 12.89 C2.88 7.5, 9.69 5.23, 10.95 1.57 M1.11 12.89 C2.56 8.55, 5.17 8.4, 10.95 1.57 M1.5 18.53 C2.23 8.85, 14.91 5.68, 16.59 1.17 M1.5 18.53 C6.23 16.51, 9.57 11.82, 16.59 1.17 M1.24 24.93 C12.06 12.96, 14.08 9.18, 21.58 1.53 M1.24 24.93 C10.98 16.68, 16.61 5.23, 21.58 1.53 M1.63 30.57 C10.2 21.46, 17.92 8.48, 27.22 1.14 M1.63 30.57 C6.53 22.57, 11.82 17.29, 27.22 1.14 M1.37 36.97 C10.52 27.84, 20.51 17.39, 32.21 1.5 M1.37 36.97 C11.94 26.79, 21.21 15.18, 32.21 1.5 M1.11 43.37 C15.02 24.59, 27.01 9.87, 37.85 1.1 M1.11 43.37 C9.97 31.15, 23.59 16.28, 37.85 1.1 M1.51 49.01 C11.68 36.02, 18.46 31.46, 42.84 1.46 M1.51 49.01 C13.47 36.22, 22.34 24.36, 42.84 1.46 M3.21 53.14 C14.62 40.09, 28.41 20.08, 48.48 1.07 M3.21 53.14 C12.36 40.87, 22.31 31.01, 48.48 1.07 M4.92 57.28 C23.73 33.44, 40.56 13.86, 53.47 1.43 M4.92 57.28 C26.06 35.64, 43.06 13.15, 53.47 1.43 M9.25 58.39 C27.96 39.17, 47.84 10.9, 59.11 1.03 M9.25 58.39 C20.98 47.67, 33.05 34.17, 59.11 1.03 M12.93 60.26 C32.96 41.14, 52.61 17.74, 64.1 1.39 M12.93 60.26 C24.11 47.86, 36.09 33.86, 64.1 1.39 M17.26 61.38 C34.16 38.84, 55.58 18.22, 70.4 0.24 M17.26 61.38 C32.23 42.5, 46.88 25.6, 70.4 0.24 M22.24 61.74 C35.75 42.19, 54.81 29.43, 74.07 2.11 M22.24 61.74 C35.56 48.43, 45.19 33.92, 74.07 2.11 M27.89 61.34 C40.06 43.34, 62.96 26.11, 78.4 3.23 M27.89 61.34 C43.21 43.3, 56.9 28.18, 78.4 3.23 M32.87 61.7 C48.54 35.42, 67.34 19.41, 82.08 5.1 M32.87 61.7 C40.94 51.64, 50.86 37.14, 82.08 5.1 M37.86 62.06 C49.48 43.73, 68.24 30.91, 83.78 9.23 M37.86 62.06 C48.39 48.23, 60.09 36.82, 83.78 9.23 M43.5 61.67 C50.52 50.3, 64.22 41.71, 85.49 13.37 M43.5 61.67 C55.25 51.82, 62.87 38.19, 85.49 13.37 M48.49 62.03 C59.07 53.18, 65.67 40.94, 87.2 17.5 M48.49 62.03 C60.01 48.83, 71.67 35.08, 87.2 17.5 M54.13 61.63 C65.31 51.33, 79.16 31.37, 87.59 23.14 M54.13 61.63 C63.32 53.92, 68.22 44.11, 87.59 23.14 M59.12 61.99 C67.27 45.89, 83.89 39.98, 87.33 29.54 M59.12 61.99 C68.28 50.02, 81.02 37.38, 87.33 29.54 M64.76 61.6 C66.23 56.24, 73.28 54.22, 87.07 35.94 M64.76 61.6 C68.47 55.15, 76.1 49.82, 87.07 35.94 M71.06 60.45 C73.57 50.77, 83.02 50.37, 87.46 41.58 M71.06 60.45 C78.51 51.93, 81.82 47.16, 87.46 41.58 M78.02 58.55 C82.76 57.27, 82.07 51.02, 85.89 49.49 M78.02 58.55 C79.53 56.22, 82.56 52.66, 85.89 49.49" stroke="#a5d8ff" stroke-width="0.5" fill="none"></path><path d="M15 0 M15 0 C25.44 0.92, 43.1 2.39, 69.8 0 M15 0 C29.23 0.41, 41.01 1.75, 69.8 0 M69.8 0 C80.41 -0.23, 82.94 3.75, 84.8 15 M69.8 0 C76.27 -0.72, 83.08 4.81, 84.8 15 M84.8 15 C86.6 26.98, 83.94 30.61, 84.8 45 M84.8 15 C85.44 19.16, 85.83 28.94, 84.8 45 M84.8 45 C84.57 57.98, 82.9 62.1, 69.8 60 M84.8 45 C85.04 55.39, 81.86 58.75, 69.8 60 M69.8 60 C55.43 63.76, 34.18 61.02, 15 60 M69.8 60 C47.31 58.75, 27.54 59.27, 15 60 M15 60 C3.22 60.86, -1.58 58.31, 0 45 M15 60 C7.45 56.77, -2.18 54.84, 0 45 M0 45 C3.68 35.88, -3.41 33.34, 0 15 M0 45 C2.29 38.06, 0.47 30.47, 0 15 M0 15 C-2.72 3.28, 7.98 -3.65, 15 0 M0 15 C-3.69 6.58, 3.11 0, 15 0" stroke="#1e1e1e" stroke-width="1" fill="none"></path></g><g transform="translate(219.07005310058594 267.5) rotate(0 16.529983520507812 12.5)"><text x="16.529983520507812" y="0" font-family="Virgil, Segoe UI Emoji" font-size="20px" fill="#1e1e1e" text-anchor="middle" style="white-space: pre;" direction="ltr" dominant-baseline="text-before-edge">b.js</text></g><g stroke-linecap="round" transform="translate(373.2000427246094 10) rotate(0 70 168.80003356933597)"><path d="M7.86 8.16 C7.86 8.16, 7.86 8.16, 7.86 8.16 M7.86 8.16 C7.86 8.16, 7.86 8.16, 7.86 8.16 M2.35 20.59 C7.04 14.72, 8.81 7.88, 18.1 2.48 M2.35 20.59 C6.77 15.25, 12.54 9.76, 18.1 2.48 M2.75 26.24 C6.86 18.23, 20.56 12.97, 24.4 1.33 M2.75 26.24 C6.17 18.41, 11.26 16.32, 24.4 1.33 M2.48 32.64 C15.27 19.74, 18 15.15, 30.7 0.18 M2.48 32.64 C11.77 19.86, 22.6 9.35, 30.7 0.18 M2.88 38.28 C8.2 27.77, 18.26 19.31, 34.37 2.05 M2.88 38.28 C12.58 30.49, 22.42 17.1, 34.37 2.05 M2.62 44.68 C14.53 35.21, 26.45 19.39, 39.36 2.41 M2.62 44.68 C17.09 30.13, 29.39 13.8, 39.36 2.41 M2.36 51.07 C10.32 34.73, 23.74 21.69, 45 2.02 M2.36 51.07 C15.9 35.98, 29.11 19.85, 45 2.02 M2.75 56.72 C18.36 33.53, 36.08 19.66, 49.99 2.38 M2.75 56.72 C17.09 39.33, 32.87 19.01, 49.99 2.38 M2.49 63.11 C15.67 48.78, 22.99 39.06, 55.63 1.98 M2.49 63.11 C15.22 49.74, 29.04 34.2, 55.63 1.98 M2.88 68.76 C22.07 48.46, 33.23 35.41, 60.62 2.34 M2.88 68.76 C24.29 43.37, 47.84 17.73, 60.62 2.34 M2.62 75.16 C17.44 56.98, 28.87 45.46, 66.26 1.95 M2.62 75.16 C25.14 51.82, 48.27 26.55, 66.26 1.95 M2.36 81.55 C22.46 61.48, 36.55 48.48, 71.25 2.31 M2.36 81.55 C16.37 62.75, 33.63 43.75, 71.25 2.31 M2.76 87.2 C21.4 62.7, 44.6 46.14, 76.23 2.67 M2.76 87.2 C26.83 59.95, 49.25 36.41, 76.23 2.67 M2.49 93.59 C25.27 67.45, 40.81 47.91, 81.88 2.27 M2.49 93.59 C30.41 58.73, 59.29 25.9, 81.88 2.27 M2.23 99.99 C28.03 73.04, 48.67 45.7, 86.86 2.63 M2.23 99.99 C23.04 79.06, 42.14 52.64, 86.86 2.63 M2.63 105.64 C22.7 75.53, 50.96 46.3, 92.51 2.24 M2.63 105.64 C35.85 70.15, 67.51 30.31, 92.51 2.24 M2.37 112.03 C28 90.32, 41.8 62.09, 97.49 2.6 M2.37 112.03 C23.44 83.85, 48.24 61.7, 97.49 2.6 M2.76 117.68 C28.93 90.51, 51.01 62.91, 103.14 2.21 M2.76 117.68 C26.26 93.25, 48.66 65.52, 103.14 2.21 M2.5 124.07 C30.9 99.69, 51.42 75.12, 108.12 2.57 M2.5 124.07 C46 77.72, 87.41 31.15, 108.12 2.57 M2.24 130.47 C41.55 83.03, 88.37 29.77, 113.77 2.17 M2.24 130.47 C23.51 105.55, 43.36 82.49, 113.77 2.17 M2.63 136.11 C29.11 104.98, 48.95 78.49, 118.1 3.29 M2.63 136.11 C49.9 81.9, 94.38 27.82, 118.1 3.29 M2.37 142.51 C35.26 105.6, 69.44 67.53, 122.43 4.4 M2.37 142.51 C24.9 111.53, 47.53 84.84, 122.43 4.4 M2.11 148.91 C36.44 116.76, 67.1 78.04, 127.42 4.76 M2.11 148.91 C48.08 95.24, 94.69 40.51, 127.42 4.76 M2.5 154.55 C38.9 112.58, 71.04 75.04, 129.78 8.14 M2.5 154.55 C27.08 124.42, 55.01 92.92, 129.78 8.14 M2.24 160.95 C47.54 107.68, 85.5 62.06, 132.8 10.76 M2.24 160.95 C31.31 125.61, 54.99 96.15, 132.8 10.76 M2.64 166.59 C41.35 129.8, 71.41 91.38, 135.16 14.14 M2.64 166.59 C32.92 128.01, 65.92 93.35, 135.16 14.14 M2.38 172.99 C43.13 124.34, 81.05 81.8, 137.52 17.52 M2.38 172.99 C33.75 137.18, 64.55 101.5, 137.52 17.52 M2.11 179.39 C52.6 122.81, 100.4 65.38, 140.54 20.15 M2.11 179.39 C48.71 121.88, 96.44 67.06, 140.54 20.15 M2.51 185.03 C55.83 124.18, 114.35 62.36, 140.94 25.79 M2.51 185.03 C40.67 137.48, 82.71 91.93, 140.94 25.79 M2.25 191.43 C29.11 156.21, 59.37 124.86, 140.68 32.19 M2.25 191.43 C36.28 152.93, 72.05 111.27, 140.68 32.19 M2.64 197.07 C55.96 141.49, 103.66 80.72, 140.41 38.58 M2.64 197.07 C52.89 140.6, 101.67 85.01, 140.41 38.58 M2.38 203.47 C43.6 155.7, 87.53 110.71, 140.15 44.98 M2.38 203.47 C50.88 148.28, 98.3 94.55, 140.15 44.98 M2.12 209.87 C34.01 170.07, 67.82 129.06, 140.55 50.63 M2.12 209.87 C46.74 164.55, 88.56 113.9, 140.55 50.63 M2.51 215.51 C51.83 161.09, 103.92 97.35, 140.29 57.02 M2.51 215.51 C32.87 185.47, 62.7 152.32, 140.29 57.02 M2.25 221.91 C39.08 183.47, 68.81 142.13, 140.68 62.67 M2.25 221.91 C39.34 180.88, 77.83 137.36, 140.68 62.67 M1.99 228.31 C44.1 183.58, 77.26 141.21, 140.42 69.06 M1.99 228.31 C54.71 172.4, 102.69 113.8, 140.42 69.06 M2.39 233.95 C41.72 192.72, 79.13 145.06, 140.16 75.46 M2.39 233.95 C47.66 184.18, 95.14 132.65, 140.16 75.46 M2.12 240.35 C48.81 187.01, 91.69 137.03, 140.55 81.11 M2.12 240.35 C46.26 191.15, 89.96 144.02, 140.55 81.11 M2.52 245.99 C54.08 184.92, 100.12 127.03, 140.29 87.5 M2.52 245.99 C33.58 209.08, 67.75 171.07, 140.29 87.5 M2.26 252.39 C45.51 209.07, 87.34 158.4, 140.69 93.15 M2.26 252.39 C30.37 216.32, 62.82 180.47, 140.69 93.15 M2 258.79 C35.49 217.31, 75.53 173.02, 140.42 99.54 M2 258.79 C39.75 216.93, 76.66 173.35, 140.42 99.54 M2.39 264.43 C31.61 228.1, 65.09 193.24, 140.16 105.94 M2.39 264.43 C49.98 208.05, 94.5 156.06, 140.16 105.94 M2.13 270.83 C41.21 230.31, 72.53 183.66, 140.56 111.58 M2.13 270.83 C52.39 211.77, 102.61 150.46, 140.56 111.58 M1.87 277.23 C37 237.92, 74.17 191.13, 140.3 117.98 M1.87 277.23 C51.4 222.54, 101.48 166.59, 140.3 117.98 M2.26 282.87 C56.42 228.44, 105.53 169.47, 140.69 123.63 M2.26 282.87 C37.3 247.17, 72.8 208.25, 140.69 123.63 M2 289.27 C34.23 255.18, 65.87 215.4, 140.43 130.02 M2 289.27 C48.41 232.59, 101.63 171.84, 140.43 130.02 M2.4 294.91 C41.94 253.5, 81.65 209.54, 140.17 136.42 M2.4 294.91 C36.59 258.37, 67.35 222.82, 140.17 136.42 M2.13 301.31 C57.05 242.78, 109.81 179.3, 140.56 142.06 M2.13 301.31 C55.08 239.96, 108.33 177.79, 140.56 142.06 M1.87 307.71 C41.45 266.2, 76.53 227.41, 140.3 148.46 M1.87 307.71 C34.52 270.85, 62.13 233.95, 140.3 148.46 M2.92 312.59 C33.47 276.74, 67.36 234.95, 140.7 154.1 M2.92 312.59 C32.15 278.57, 65.26 243.14, 140.7 154.1 M2.01 319.75 C46.64 270.9, 86.66 222.29, 140.43 160.5 M2.01 319.75 C54.47 258.68, 106.87 200.63, 140.43 160.5 M4.37 323.13 C42.59 276.45, 76.93 232.68, 140.17 166.9 M4.37 323.13 C61.3 264.9, 113.39 200.6, 140.17 166.9 M7.39 325.75 C51.36 281.07, 90.52 232.45, 140.57 172.54 M7.39 325.75 C59.14 268.02, 110.41 208.43, 140.57 172.54 M9.75 329.13 C61.53 271.8, 106.35 221.39, 140.31 178.94 M9.75 329.13 C41 297.39, 68.33 267.24, 140.31 178.94 M12.11 332.51 C46.26 290.05, 82.34 253.74, 140.7 184.58 M12.11 332.51 C61.73 271.41, 113.69 213.27, 140.7 184.58 M15.13 335.13 C49.7 294.61, 84.35 251.91, 140.44 190.98 M15.13 335.13 C46.95 294.73, 83.58 253.56, 140.44 190.98 M18.81 337 C63.14 293.67, 100.02 242.23, 140.18 197.38 M18.81 337 C57.01 294.29, 96.23 250.58, 140.18 197.38 M23.14 338.12 C54.42 303.45, 85.04 266.85, 140.57 203.02 M23.14 338.12 C50.99 306.51, 78.69 276.8, 140.57 203.02 M27.47 339.23 C73.89 289.2, 115.39 236.45, 140.31 209.42 M27.47 339.23 C61.92 301.27, 98.36 258.71, 140.31 209.42 M32.46 339.59 C54 311.94, 84.91 282.19, 140.71 215.06 M32.46 339.59 C72.75 294.12, 114.74 247.46, 140.71 215.06 M38.1 339.2 C54.7 311.04, 84.56 286.05, 140.44 221.46 M38.1 339.2 C64.54 305.47, 92.79 276.12, 140.44 221.46 M43.09 339.56 C83.43 297.44, 114.24 253.09, 140.18 227.86 M43.09 339.56 C63.14 313.54, 86.25 290.12, 140.18 227.86 M48.07 339.92 C79.97 308.43, 110.19 270.75, 140.58 233.5 M48.07 339.92 C80.6 302.13, 116.66 262.47, 140.58 233.5 M53.72 339.52 C86.94 306.75, 119.03 268.81, 140.32 239.9 M53.72 339.52 C72.82 315.49, 91.93 296.73, 140.32 239.9 M58.7 339.88 C89.72 300.9, 115.22 272.92, 140.71 245.54 M58.7 339.88 C81.62 311.87, 107.39 284.99, 140.71 245.54 M64.35 339.49 C90.15 309.67, 113.16 284.43, 140.45 251.94 M64.35 339.49 C93.9 304.35, 119.79 272.46, 140.45 251.94 M69.33 339.85 C88.45 317.84, 112.13 289.19, 140.19 258.34 M69.33 339.85 C83.56 320.6, 100.68 303.56, 140.19 258.34 M74.98 339.45 C91.26 320.05, 111.51 296.11, 140.58 263.98 M74.98 339.45 C99.68 309.96, 127.75 278.21, 140.58 263.98 M79.96 339.81 C98.56 313.27, 122.92 286.54, 140.32 270.38 M79.96 339.81 C96.95 323.77, 114.35 305.53, 140.32 270.38 M84.95 340.17 C100.79 321.95, 115.25 304.22, 140.71 276.02 M84.95 340.17 C97.99 324.2, 112.11 309.67, 140.71 276.02 M90.59 339.78 C105.57 326.89, 119.84 312.99, 140.45 282.42 M90.59 339.78 C111.75 318.96, 130.02 297.92, 140.45 282.42 M95.58 340.14 C112.88 321.21, 124.52 300.61, 140.19 288.82 M95.58 340.14 C107.05 324.06, 121.46 310.01, 140.19 288.82 M101.22 339.74 C108.09 331.99, 120.34 319.68, 140.59 294.46 M101.22 339.74 C113.09 327.43, 121.36 315.7, 140.59 294.46 M108.18 337.84 C117.95 324.54, 121.09 317.3, 140.32 300.86 M108.18 337.84 C114.47 329.27, 122.07 319.52, 140.32 300.86 M114.48 336.69 C121.26 324.63, 135.99 314.04, 140.72 306.5 M114.48 336.69 C122.1 324.96, 132.94 317.06, 140.72 306.5 M120.12 336.3 C124.2 328.6, 130.7 323.07, 139.15 314.41 M120.12 336.3 C128.16 329.62, 133.24 323.1, 139.15 314.41 M124.45 337.41 C124.49 334.08, 129.91 327.02, 136.92 323.07 M124.45 337.41 C126.69 331.27, 131.62 328.23, 136.92 323.07" stroke="#a5d8ff" stroke-width="0.5" fill="none"></path><path d="M32 0 M32 0 C55.88 1.72, 89.21 2.36, 108 0 M32 0 C58.93 1.52, 87.78 1.61, 108 0 M108 0 C126.34 -0.93, 137.06 9.04, 140 32 M108 0 C131.56 -4.24, 140.3 9.54, 140 32 M140 32 C138.65 109.83, 138.46 187.74, 140 305.6 M140 32 C141.17 131.07, 143.03 232.89, 140 305.6 M140 305.6 C136.8 325.61, 133.31 341.27, 108 337.6 M140 305.6 C142.59 328.29, 126.21 341.18, 108 337.6 M108 337.6 C89.77 337.27, 72.31 334.38, 32 337.6 M108 337.6 C84.76 337.82, 62.29 338.12, 32 337.6 M32 337.6 C13.35 339.62, 3.09 323.98, 0 305.6 M32 337.6 C12.66 340.55, 2.77 328.25, 0 305.6 M0 305.6 C-3.21 234.91, -3.35 168.78, 0 32 M0 305.6 C-4.56 249.44, -3.47 191.66, 0 32 M0 32 C-2.18 9.33, 7.37 1.28, 32 0 M0 32 C2.48 13.06, 12.11 3.65, 32 0" stroke="#1e1e1e" stroke-width="1" fill="none"></path></g><g stroke-linecap="round" transform="translate(382.8000183105469 37.200042724609375) rotate(0 58 17.5)"><path d="M2.33 2.02 C2.33 2.02, 2.33 2.02, 2.33 2.02 M2.33 2.02 C2.33 2.02, 2.33 2.02, 2.33 2.02 M0.76 9.93 C6.26 8.43, 8.54 4.04, 9.28 0.12 M0.76 9.93 C2.42 7.94, 4.54 4.24, 9.28 0.12 M1.15 15.57 C0.56 12.29, 6.24 7.83, 14.27 0.48 M1.15 15.57 C5.36 11.67, 9.53 8.96, 14.27 0.48 M1.54 21.22 C6.02 17, 17.36 3.62, 19.91 0.09 M1.54 21.22 C7.15 15.83, 9.57 11.15, 19.91 0.09 M1.28 27.62 C4.91 23.39, 9.02 14.62, 24.9 0.45 M1.28 27.62 C7.98 17.79, 15.43 9.93, 24.9 0.45 M2.99 31.75 C9.6 21.71, 25 11.02, 29.89 0.81 M2.99 31.75 C12.95 20.88, 20.41 10.62, 29.89 0.81 M5.35 35.13 C21.63 19.15, 30.78 8.32, 35.53 0.41 M5.35 35.13 C11.63 27.29, 21.9 19.01, 35.53 0.41 M11 34.73 C20.67 25.4, 29.37 10.02, 40.52 0.77 M11 34.73 C21.75 22.92, 34.91 10.6, 40.52 0.77 M15.98 35.09 C23.35 22.1, 36.28 12.8, 46.16 0.38 M15.98 35.09 C25.56 19.96, 40.84 8.54, 46.16 0.38 M21.63 34.7 C30.22 24.52, 34.73 15.12, 51.15 0.74 M21.63 34.7 C27.55 27.53, 35.72 16.77, 51.15 0.74 M26.61 35.06 C30.68 23.53, 40.89 14.96, 56.79 0.34 M26.61 35.06 C30.52 28.65, 39.98 18.69, 56.79 0.34 M31.6 35.42 C39.64 27.16, 51.07 16.36, 61.78 0.7 M31.6 35.42 C42.68 24.11, 50.85 13.56, 61.78 0.7 M37.24 35.02 C45.46 24.08, 51.5 17.33, 67.42 0.31 M37.24 35.02 C44.93 24.11, 52.97 14.57, 67.42 0.31 M42.23 35.38 C54.51 26.79, 55.42 19.99, 72.41 0.67 M42.23 35.38 C47.9 27.45, 57.01 17.57, 72.41 0.67 M47.87 34.99 C56.26 20.45, 70.15 10.86, 77.4 1.03 M47.87 34.99 C58.94 22.2, 69.87 9.43, 77.4 1.03 M52.86 35.35 C59.54 27.83, 71.58 14.68, 83.04 0.63 M52.86 35.35 C61.55 22.5, 69.6 15.45, 83.04 0.63 M58.5 34.96 C67.05 27.15, 70.65 16.26, 88.03 0.99 M58.5 34.96 C65.82 27.38, 70.74 18.47, 88.03 0.99 M63.49 35.32 C74.13 25.38, 86.13 11.44, 93.67 0.6 M63.49 35.32 C68.81 28.58, 76.14 17.9, 93.67 0.6 M69.13 34.92 C77.66 24.19, 82.71 14.74, 98.66 0.96 M69.13 34.92 C76.61 23.8, 85.49 17.12, 98.66 0.96 M74.12 35.28 C81.62 30.95, 90.69 22.47, 104.3 0.56 M74.12 35.28 C83.06 25.41, 92.99 12.43, 104.3 0.56 M79.11 35.64 C85.02 26.47, 97.29 18.59, 109.29 0.92 M79.11 35.64 C88.11 25.05, 98.57 12.44, 109.29 0.92 M84.75 35.25 C91.9 32.51, 97.31 23.6, 112.96 2.79 M84.75 35.25 C90.52 29.38, 98.35 21.24, 112.96 2.79 M89.74 35.61 C97.8 24.1, 113.77 10.73, 115.98 5.42 M89.74 35.61 C98.84 25.55, 112.91 11.06, 115.98 5.42 M95.38 35.21 C103.46 27.24, 107.38 25.1, 115.72 11.82 M95.38 35.21 C102.93 25.84, 107.13 17.53, 115.72 11.82 M100.37 35.57 C106.79 31.52, 113.15 23.96, 116.11 17.46 M100.37 35.57 C104.14 28.48, 112.14 24.6, 116.11 17.46 M106.01 35.18 C108.09 33.91, 109.31 32.55, 115.85 23.86 M106.01 35.18 C109.94 31.99, 110.78 27.2, 115.85 23.86" stroke="#a5d8ff" stroke-width="0.5" fill="none"></path><path d="M8.75 0 M8.75 0 C34.97 1.18, 64.55 -0.06, 107.25 0 M8.75 0 C37.11 1.62, 62.26 -0.99, 107.25 0 M107.25 0 C110.82 -2.3, 117.22 0.84, 116 8.75 M107.25 0 C109.53 -4.04, 112.28 -0.32, 116 8.75 M116 8.75 C118.99 10.9, 115.53 14.05, 116 26.25 M116 8.75 C117.16 14.91, 116.3 19.42, 116 26.25 M116 26.25 C116.54 29.29, 113.76 37.6, 107.25 35 M116 26.25 C113.43 28.38, 111.64 38.82, 107.25 35 M107.25 35 C71.7 34.52, 33.49 39.3, 8.75 35 M107.25 35 C73.03 36.07, 37.58 34.11, 8.75 35 M8.75 35 C1.44 38.7, -1.73 34.88, 0 26.25 M8.75 35 C5.8 34.09, 2.72 33.46, 0 26.25 M0 26.25 C-2.98 21.83, 3.04 12.47, 0 8.75 M0 26.25 C0.09 20.99, 0.89 15.9, 0 8.75 M0 8.75 C1.8 5.71, 4.1 -0.66, 8.75 0 M0 8.75 C4.44 -0.01, 5.44 -1.22, 8.75 0" stroke="#1e1e1e" stroke-width="1" fill="none"></path></g><g transform="translate(405.7100524902344 42.200042724609375) rotate(0 35.0899658203125 12.5)"><text x="35.0899658203125" y="0" font-family="Virgil, Segoe UI Emoji" font-size="20px" fill="#1e1e1e" text-anchor="middle" style="white-space: pre;" direction="ltr" dominant-baseline="text-before-edge">index.js</text></g><g stroke-linecap="round" transform="translate(404.4000549316406 258.8000183105469) rotate(0 40.4000244140625 17.5)"><path d="M2.33 2.02 C2.33 2.02, 2.33 2.02, 2.33 2.02 M2.33 2.02 C2.33 2.02, 2.33 2.02, 2.33 2.02 M0.76 9.93 C1.07 6.87, 4.11 5.46, 9.28 0.12 M0.76 9.93 C3.49 8.36, 5.91 4.77, 9.28 0.12 M1.15 15.57 C4.41 10.8, 11.44 2.17, 14.27 0.48 M1.15 15.57 C5.35 10.04, 11.01 5.23, 14.27 0.48 M1.54 21.22 C9.71 17.03, 9.76 11.97, 19.91 0.09 M1.54 21.22 C7.32 15.8, 10.2 10.58, 19.91 0.09 M1.28 27.62 C6.46 19.52, 18.09 8.91, 24.9 0.45 M1.28 27.62 C7.92 20.49, 16.66 12.32, 24.9 0.45 M2.99 31.75 C10.25 27.59, 16.02 14.21, 29.89 0.81 M2.99 31.75 C10 22.21, 16.21 15.02, 29.89 0.81 M5.35 35.13 C17.29 26.5, 21.11 19.67, 35.53 0.41 M5.35 35.13 C17.38 23.59, 24.69 10.77, 35.53 0.41 M11 34.73 C21.19 28.67, 28.98 15.28, 40.52 0.77 M11 34.73 C22.03 21.05, 31.81 9.88, 40.52 0.77 M15.98 35.09 C27.12 27.94, 33.76 14.43, 46.16 0.38 M15.98 35.09 C25.77 21.84, 36.98 13.92, 46.16 0.38 M20.97 35.45 C29.78 22.47, 36.66 16.18, 51.15 0.74 M20.97 35.45 C30.11 26.27, 35.59 18.33, 51.15 0.74 M26.61 35.06 C37.66 28.97, 48.02 15.78, 56.79 0.34 M26.61 35.06 C34.91 24.14, 45.24 12.49, 56.79 0.34 M31.6 35.42 C34.38 30.6, 43.8 23.77, 61.78 0.7 M31.6 35.42 C41.43 21.01, 52.86 7.93, 61.78 0.7 M37.24 35.02 C47.09 28.07, 53.24 14.44, 66.77 1.06 M37.24 35.02 C45.77 28.01, 50.71 16.4, 66.77 1.06 M42.23 35.38 C51.48 21.52, 64.9 6.69, 72.41 0.67 M42.23 35.38 C53.39 24.35, 63.05 9.42, 72.41 0.67 M47.87 34.99 C55.8 25.73, 59.58 16.99, 76.74 1.78 M47.87 34.99 C58.74 24.17, 69.86 11.37, 76.74 1.78 M52.86 35.35 C59.19 21.09, 73.39 13.34, 79.76 4.41 M52.86 35.35 C62.85 23.72, 68.89 16.42, 79.76 4.41 M57.85 35.71 C68.23 23.25, 72.66 13.98, 82.78 7.03 M57.85 35.71 C69.86 23.44, 78.14 14.51, 82.78 7.03 M63.49 35.32 C70.85 31.35, 75.46 27.28, 82.52 13.43 M63.49 35.32 C68.07 32.33, 70.39 24.63, 82.52 13.43 M68.48 35.68 C75.2 34.23, 79.2 24.5, 82.91 19.07 M68.48 35.68 C75.29 30.97, 78.71 24.07, 82.91 19.07 M73.46 36.04 C79.47 34.82, 77.94 27.58, 82.65 25.47 M73.46 36.04 C76.68 34.06, 78.62 30.55, 82.65 25.47" stroke="#a5d8ff" stroke-width="0.5" fill="none"></path><path d="M8.75 0 M8.75 0 C19.77 -1.54, 36.42 2.65, 72.05 0 M8.75 0 C25.79 0.94, 39.63 0.97, 72.05 0 M72.05 0 C79.13 1.03, 83.05 3.04, 80.8 8.75 M72.05 0 C81.56 -3.49, 79.22 -1.04, 80.8 8.75 M80.8 8.75 C79.54 15.13, 78.17 16.57, 80.8 26.25 M80.8 8.75 C79.41 13.63, 80.14 20.71, 80.8 26.25 M80.8 26.25 C79.01 28.1, 79.77 31.4, 72.05 35 M80.8 26.25 C78.82 28.47, 77.93 36.25, 72.05 35 M72.05 35 C60.71 36.65, 42.58 32.67, 8.75 35 M72.05 35 C53.16 35.24, 31.33 33.78, 8.75 35 M8.75 35 C0.65 31.57, -0.79 31.98, 0 26.25 M8.75 35 C2.18 38.88, -2.15 34.66, 0 26.25 M0 26.25 C3.46 19.64, -2.36 21.48, 0 8.75 M0 26.25 C0.07 18.33, 0.31 13.82, 0 8.75 M0 8.75 C2.48 3.11, 3.02 3.21, 8.75 0 M0 8.75 C-0.05 4.99, 5.65 4.16, 8.75 0" stroke="#1e1e1e" stroke-width="1" fill="none"></path></g><g transform="translate(426.68009185791016 263.8000183105469) rotate(0 18.11998748779297 12.5)"><text x="18.11998748779297" y="0" font-family="Virgil, Segoe UI Emoji" font-size="20px" fill="#1e1e1e" text-anchor="middle" style="white-space: pre;" direction="ltr" dominant-baseline="text-before-edge">a.js</text></g><g stroke-linecap="round"><g transform="translate(448.3999938964844 70.80006408691406) rotate(0 -2.0571478581056226 88.1052941768989)"><path d="M-2.02 -2.74 C-3.24 26.68, -5.51 145.89, -6.2 176.4 M2.08 1.95 C1.62 31.68, -0.57 149.96, -0.99 178.95" stroke="#1e1e1e" stroke-width="1" fill="none"></path></g><g transform="translate(448.3999938964844 70.80006408691406) rotate(0 -2.0571478581056226 88.1052941768989)"><path d="M-14.68 147.45 C-10.32 157.38, -1.32 166.84, -0.85 179.79 M-9.02 150.07 C-6.37 162.54, -2.74 170.81, -2.11 178.62" stroke="#1e1e1e" stroke-width="1" fill="none"></path></g><g transform="translate(448.3999938964844 70.80006408691406) rotate(0 -2.0571478581056226 88.1052941768989)"><path d="M5.84 147.8 C3.21 157.31, 5.21 166.65, -0.85 179.79 M11.5 150.42 C6.29 162.92, 2.05 171.05, -2.11 178.62" stroke="#1e1e1e" stroke-width="1" fill="none"></path></g></g><mask></mask><g stroke-linecap="round" transform="translate(62.4000244140625 248.79995727539062) rotate(0 42.399993896484375 30)"><path d="M3.99 3.47 C3.99 3.47, 3.99 3.47, 3.99 3.47 M3.99 3.47 C3.99 3.47, 3.99 3.47, 3.99 3.47 M1.11 12.89 C3.53 8.66, 4.35 9.89, 10.95 1.57 M1.11 12.89 C4.05 10.2, 4.17 7.23, 10.95 1.57 M1.5 18.53 C3.94 14.48, 7.93 7.01, 16.59 1.17 M1.5 18.53 C7.58 13.81, 11.46 9.51, 16.59 1.17 M1.24 24.93 C5.02 19.78, 16.69 12.53, 21.58 1.53 M1.24 24.93 C10.02 16.13, 18.14 7.82, 21.58 1.53 M1.63 30.57 C10.63 16.65, 19.5 5.65, 27.22 1.14 M1.63 30.57 C9.64 21.29, 13.6 13.22, 27.22 1.14 M1.37 36.97 C8.22 32.78, 10.9 19.61, 32.21 1.5 M1.37 36.97 C11.64 29.25, 18.68 15.28, 32.21 1.5 M1.11 43.37 C11.5 30.46, 26.65 11.75, 37.85 1.1 M1.11 43.37 C12.18 32.68, 18.17 20.96, 37.85 1.1 M1.51 49.01 C15.14 35.92, 27.23 16.27, 42.84 1.46 M1.51 49.01 C12.73 35.95, 23.32 22.5, 42.84 1.46 M3.21 53.14 C16.47 38.96, 24.46 27.61, 48.48 1.07 M3.21 53.14 C12.76 38.7, 23.34 28.73, 48.48 1.07 M4.92 57.28 C19.99 33.24, 37.06 19, 53.47 1.43 M4.92 57.28 C15.59 46.53, 25.9 34.93, 53.47 1.43 M9.25 58.39 C21.01 44.12, 33.2 33.62, 59.11 1.03 M9.25 58.39 C20.58 46.57, 31.33 33.24, 59.11 1.03 M12.93 60.26 C28.29 43.75, 37.36 27.99, 64.1 1.39 M12.93 60.26 C30.12 41.71, 45.39 24.89, 64.1 1.39 M17.26 61.38 C28.14 44.65, 46.16 33.87, 70.4 0.24 M17.26 61.38 C37.25 38.62, 56.9 15.68, 70.4 0.24 M22.24 61.74 C41.15 47.4, 54.68 23.71, 74.07 2.11 M22.24 61.74 C31.9 47.75, 47.1 33.05, 74.07 2.11 M27.89 61.34 C40.74 47.89, 55.88 34.91, 78.4 3.23 M27.89 61.34 C46.05 42.91, 58.74 22.44, 78.4 3.23 M32.87 61.7 C44.77 52.21, 57.79 37.57, 82.08 5.1 M32.87 61.7 C43.33 49.6, 51.97 38.27, 82.08 5.1 M37.86 62.06 C58.11 44.68, 75.17 24.65, 83.78 9.23 M37.86 62.06 C51.32 46.94, 64.71 33.16, 83.78 9.23 M43.5 61.67 C54.17 49.54, 60.98 39.91, 85.49 13.37 M43.5 61.67 C60.11 43.31, 76.46 29.13, 85.49 13.37 M48.49 62.03 C64.48 42.67, 75.92 29.47, 87.2 17.5 M48.49 62.03 C58.54 52.87, 63.41 45.03, 87.2 17.5 M54.13 61.63 C65.99 52.76, 68.55 41.12, 87.59 23.14 M54.13 61.63 C64.03 46.86, 74.68 35.68, 87.59 23.14 M59.12 61.99 C67.35 50.12, 77.7 40.31, 87.33 29.54 M59.12 61.99 C67.75 55.78, 73.86 47.75, 87.33 29.54 M64.76 61.6 C72.51 52.39, 83.38 41.22, 87.07 35.94 M64.76 61.6 C69.63 56.33, 73.58 50.34, 87.07 35.94 M71.06 60.45 C75.67 57.17, 79.15 45.35, 87.46 41.58 M71.06 60.45 C77.53 52.37, 84.3 46.72, 87.46 41.58 M78.02 58.55 C82 56.89, 83.54 52.77, 85.89 49.49 M78.02 58.55 C81.23 55.38, 82.71 50.73, 85.89 49.49" stroke="#a5d8ff" stroke-width="0.5" fill="none"></path><path d="M15 0 M15 0 C33.95 -0.56, 52.27 -0.27, 69.8 0 M15 0 C32.06 -0.19, 51.52 -0.2, 69.8 0 M69.8 0 C77.9 -0.39, 81.03 5.64, 84.8 15 M69.8 0 C83.48 -1.68, 80.38 3.72, 84.8 15 M84.8 15 C82.81 24.21, 82.97 35.94, 84.8 45 M84.8 15 C83.94 24.38, 84.91 35.36, 84.8 45 M84.8 45 C87.56 57.27, 82.52 61.72, 69.8 60 M84.8 45 C81.19 59.16, 81.24 61.3, 69.8 60 M69.8 60 C46.07 61.51, 24.98 60.99, 15 60 M69.8 60 C50.28 59.29, 28.31 59.3, 15 60 M15 60 C4.15 61.17, 2.6 58.03, 0 45 M15 60 C7.93 59.34, -1.19 57.49, 0 45 M0 45 C-3.29 38.69, 3.98 26.24, 0 15 M0 45 C1.69 37.16, 0.43 27.65, 0 15 M0 15 C-0.21 3.35, 7.05 3.44, 15 0 M0 15 C-1.06 8.12, 4.73 1.77, 15 0" stroke="#1e1e1e" stroke-width="1" fill="none"></path></g><g transform="translate(86.6800308227539 266.2999572753906) rotate(0 18.11998748779297 12.5)"><text x="18.11998748779297" y="0" font-family="Virgil, Segoe UI Emoji" font-size="20px" fill="#1e1e1e" text-anchor="middle" style="white-space: pre;" direction="ltr" dominant-baseline="text-before-edge">a.js</text></g><g stroke-linecap="round"><g transform="translate(163.0831445310472 70.79997253417969) rotate(0 -26.66415136915282 87.3828656987846)"><path d="M2.77 1.01 C-6.3 29.71, -44.83 143.58, -54.07 172.87 M0.83 -0.9 C-8.61 28.08, -47.04 146.77, -56.1 175.67" stroke="#1e1e1e" stroke-width="1" fill="none"></path></g><g transform="translate(163.0831445310472 70.79997253417969) rotate(0 -26.66415136915282 87.3828656987846)"><path d="M-55.84 146.25 C-58.96 157.59, -53.07 165.33, -59.12 172.14 M-56.71 147.32 C-55.34 152.29, -58.71 159.17, -57.03 176.1" stroke="#1e1e1e" stroke-width="1" fill="none"></path></g><g transform="translate(163.0831445310472 70.79997253417969) rotate(0 -26.66415136915282 87.3828656987846)"><path d="M-36.3 152.5 C-45.55 162.27, -45.77 168.06, -59.12 172.14 M-37.17 153.56 C-39.88 157.52, -47.38 163.09, -57.03 176.1" stroke="#1e1e1e" stroke-width="1" fill="none"></path></g></g><mask></mask></svg>